/* XPM */
static char *_94cc552a42449bcda29270effba07b2iMAVVp3YQxnyQLfl[] = {
/* columns rows colors chars-per-pixel */
"64 64 110 2 ",
"   c #412B5F",
".  c #442E62",
"X  c #463163",
"o  c #4B3266",
"O  c #4B3569",
"+  c #50376C",
"@  c #52396E",
"#  c #553D71",
"$  c #583E72",
"%  c #574175",
"&  c #5D4176",
"*  c #5D457A",
"=  c #664C82",
"-  c #6C568A",
";  c #73568C",
":  c #79588F",
">  c #7A5C92",
",  c #786196",
"<  c #805F96",
"1  c #89679F",
"2  c #8865A3",
"3  c #836EA5",
"4  c #8E68A0",
"5  c #926DA5",
"6  c #8B74AB",
"7  c #9872AA",
"8  c #906FB8",
"9  c #9177B4",
"0  c #9B7DB4",
"q  c #9276B9",
"w  c #9579BB",
"e  c #987CBF",
"r  c #A37AB3",
"t  c #977BC0",
"y  c #9A7DC2",
"u  c #9C7ACA",
"i  c #9B83BB",
"p  c #9E88BD",
"a  c #A181B9",
"s  c #AB81BA",
"d  c #9E82C5",
"f  c #A085C6",
"g  c #A38EC1",
"h  c #BA8DC6",
"j  c #AA93CA",
"k  c #AF98CE",
"l  c #BC91CA",
"z  c #A484D2",
"x  c #A887D7",
"c  c #AA88D4",
"v  c #A986D8",
"b  c #AD8ADE",
"n  c #B18DDC",
"m  c #AE96D1",
"M  c #BD94D5",
"N  c #B49DD3",
"B  c #B99EDF",
"V  c #B6A1D4",
"C  c #B8A1D7",
"Z  c #BCA6DA",
"A  c #BFAADC",
"S  c #B28EE3",
"D  c #B691E4",
"F  c #BC94E5",
"G  c #C093CC",
"H  c #C59AD4",
"J  c #C999D4",
"K  c #CE9ED8",
"L  c #CCA0DC",
"P  c #C9A8DD",
"I  c #D0A3DE",
"U  c #C097E6",
"Y  c #C299E6",
"T  c #C89CE7",
"R  c #C69CE8",
"E  c #CA9EE8",
"W  c #CEA1EA",
"Q  c #CFA9EC",
"!  c #D6A5E3",
"~  c #D9A6E2",
"^  c #DDAAE5",
"/  c #D3A4EB",
"(  c #D8A7EC",
")  c #D7A9EB",
"_  c #DCABED",
"`  c #DCB1EF",
"'  c #DBB4F0",
"]  c #E2AEED",
"[  c #E6B1EE",
"{  c #E9B3EF",
"}  c #E9B4EF",
"|  c #ECB7ED",
" . c #ECBBE9",
".. c #E6B2F0",
"X. c #E5B6F0",
"o. c #EAB3F0",
"O. c #EAB4F0",
"+. c #ECB7F2",
"@. c #EBB8F1",
"#. c #EDBAF3",
"$. c #E8BCF3",
"%. c #EEBDF2",
"&. c #EFC2F4",
"*. c #F1C4F6",
"=. c #F2C8F7",
"-. c #F3CAF8",
";. c #F4CCF8",
":. c #F4CCF9",
">. c #F6D0FA",
",. c #F8D5FC",
/* pixels */
"O.O.O.O.O.O.O.O.O.O.O.O.O.O.O.O.O.O.O.O.O.O.O.O.O.O.O.O.O.O.O.O.O.O.O.O.O.O.O.O.O.O.O.O.O.O.O.O.O.O.O.O.O.O.O.O.O.O.O.O.O.O.O.O.",
"O.O.O.O.O.O.O.O.O.O.O.O.O.O.O.O.O.O.O.O.O.O.O.O.O.O.O.O.O.O.O.O.O.O.O.O.O.O.O.O.O.O.O.O.O.O.O.O.O.O.O.O.O.O.O.O.O.O.O.O.O.O.O.O.",
"O.O.O.O.O.O.O.O.O.O.O.O.O.O.O.O.O.O.O.O.O.O.O.O.O.O.O.O.O.O.O.O.O.O.O.O.O.O.O.O.O.O.O.O.O.O.O.O.O.O.O.O.O.O.O.O.O.O.O.O.O.O.O.O.",
"O.O.O.O.O.O.O.O.O.O.O.O.O.O.O.O.O.O.O.O.O.O.O.O.O.O.O.O.O.O.O.O.O.O.O.O.O.O.O.O.O.O.O.O.O.O.O.O.O.O.O.O.O.O.O.O.O.[ F { O.O.O.O.",
"O.O.O.O.O.O.O.O.O.O.O.O.O.O.O.O.O.O.O.O.O.O.O.O.O.O.O.O.O.O.O.O.O.O.O.O.O.O.O.O.O.O.O.O.O.O.O.O.O.O.O.O.O.O.O.O.O.[ F _ / O.O.O.",
"O.O.O.O.O.O.O.O.O.O.O.O.O.O.O.O.O.O.O.O.O.O.O.O.O.O.O.O.O.O.O.O.O.O.O.O.O.O.O.O.O.O.O.O.O.O.O.O.O.O.O.O.O.O.O.O._ [ F / F O.O.O.",
"O.O.O.O.O.O.O.O.O.O.O.O.O.O.O.O.O.O.O.O.O.O.O.O.O.O.O.O.O.O.O.O.O.O.O.O.O.O.O.O.O.O.O.O.O.O.O.O.O.O.O.O.O.O.O.O.Y ( E _ F O.O.O.",
"O.O.O.O.O.O.O.O.O.O.O.O.O.O.O.O.O.O.O.O.O.O.O.O.O.O.O.O.O.O.O.O.O.O.O.O.O.O.O.O.O.O.O.O.O.O.O.O.O.O.O.O.O.O.O.O.R ( ] ] F O.O.O.",
"O.O.O.O.O.O.O.O.O.O.O.O.O.O.O.O.O.O.O.O.O.O.O.O.O.O.O.O.O.O.O.O.O.O.O.O.O.O.O.O.O.O.O.O.O.O.O.O.O.O.O.O.O.O.O.O.E _ O.[ E O.O.O.",
"O.O.O.O.O.O.O.O.O.O.O.O.O.O.O.O.O.O.O.O.O.O.O.O.O.O.O.O.O.O.O.O.O.O.O.O.O.O.O.O.O.O.O.O.O.O.O.O.O.O.O.O.O.O.O.O./ [ O.O.O.O.O.O.",
"O.O.O.O.O.O.O.O.O.O.O.O.O.O.O.O.O.O.O.O.O.O.O.O.O.O.O.O.O.O.O.O.O.O.O.O.O.O.O.O.O.O.O.O.O.O.O.O.O.O.O.O.O.O.O.O.{ O.O.O.O.O.O.O.",
"O.O.O.O.O.O.O.O.O.O.O.O.O.O.O.O.O.O.O.O.O.O.O.O.O.O.O.O.O.O.O.O.O.O.O.O.O.O.O.O.O.O.O.O.O.O.O.O.O.O.O.O.O.O.O.O.O.O.O.O.O.O.O.O.",
"O.O.O.O.O.O.O.O.O.O.O.O.O.O.O.O.O.O.O.O.O.O.O.O.O.O.O.O.O.O.O.O.O.O.O.O.O.O.O.O.O.O.O.O.O.O.O.O.O.O.O.O.O.O.O.O.O.O.O.O.O.O.O.O.",
"O.O.O.O.O.O.O.O.O.O.O.O.O.O.O.O.O.O.O.O.O.O.O.O.O.O.O.O.O.O.O.O.O.O.O.O.O.O.O.O.O.O.O.O.O.O.O.O.O.O.O.O.O.O.O.O.O.O.O.O.O.O.O.O.",
"O.O.O.O.O.O.O.O.O.O.O.O.O.O.O.O.O.O.O.O.O.O.O.O.O.O.O.O.O.O.O.O.O.O.O.O.O.O.O.O.O.O.O.O.O.O.O.O.O.O.O.O.O.O.O.O.O.O.O.O.O.O.O.O.",
"O.O.O.O.O.O.O.O.O.O.O.O.O.O.O.O.O.O.O.O.O.O.O.O.O.O.O.O.O.O.O.O.O.O.O.O.O.O.O.O.O.O.O.O.O.O.O.O.O.O.O.O.O.O.O.O.O.O.O.O.O.O.O.O.",
"O.O.O.O.O.O.O.O.O.O.O.O.O.O.O.O.O.O.O.O.O.O.O.O.O.O.O.O.O.O.O.O.O.O.O.O.O.O.O.O.O.O.O.O.O.O.O.O.O.O.O.O.O.O.O.O.O.O.O.O.O.O.O.O.",
"O.O.O.O.O.O.O.O.O.O.O.O.O.O.O.O.O.O.O.O.O.O.O.O.O.O.O.O.O.O.O.O.O.O.O.O.O.O.O.O.O.O.O.O.O.O.O.O.O.O.O.O.O.O.O.O.O.O.O.O.O.O.O.O.",
"O.O.O.O.O.O.O.O.O.O.O.O.O.O.O.O.O.O.O.O.O.O.O.O.O.O.O.O.O.O.O.O.} O.O.O.O.O.O.O.O.O.O.O.O.O.O.O.O.O.O.O.O.O.O.O.O.O.O.O.O.O.O.O.",
"O.O.O.O.O.O.O.O.O.O.O.O.O.O.O.O.O.O.O.O.O.O.O.O.O.O.O.O.O.O.O.O.W ] o.o.O.O.O.O.O.O.O.O.O.O.O.O.O.O.O.O.O.O.O.O.O.O.O.O.O.O.O.O.",
"O.O.O.O.O.O.O.;.-.O.O.O.O.O.{ o.O.O.O.O.O.O.O.O.O.O.O.O.O.O.O.} E / ..W _ O.O.O.O.O.O.O.O.O.O.O.O.O.O.O.O.O.O.O.} O.O.O.O.O.O.O.",
"O.O.O.O.O.O.O.,.;.O.O.O.O.O.] O.O.O.O.O.O.O.O.O.O.O.O.O.O.O.} O.E W _ W ) O.O.O.O.O.O.O.O.O.O.O.O.O.O.O.O.O.O.O.F O.O.O.O.O.O.O.",
"O.O.O.O.O.O.O.,.-.O.O.O.O.O...O.O.O.O.O.O.O.O.O.O.O.o.o.o.O.[ O.W / ] W W O.O.O.O.O.O.O.O.O.O.O.O.O.O.O.] O.O./ F O.O.O.O.O.O.O.",
"O.O.O.O.O.O.O.&.#.O.O.O.O.O.O.O.O.O.O.O.O.O.O.o.O.O.[ O.o.O...O._ [ O./ ( O.O.O.O.O.O.O.O.O.O.O.O.O.O.O.O.O.O.T F O.O.O.O.#.O.O.",
"O.O.O.O.O.O.O.O.O.O.O.O.O.O.O.O.O.O.O.O.O.O.O.O.{ O.o.O.[ O.O.O.O.O.O._ _ O.O.O.O.O.O.O.O.O.O.O.O.O.O.O.O.O.O._ { O.o.O.#.=.O.O.",
"O.O.O.O.O.O.O.O.O.O.O.O.O.O.O.O.O.O.O.O.O.O.O.O.O.O.O.O.[ O.O.O.O.O.O.[ [ O.O.O.O.O.O.O.O.O.O.O.O.O.O.O.O.O.O...O.o./ [ X.%.O.O.",
"O.O.O.O.O.O.O.O.O.] ! J ^ s G ] { { O.O.O.O.O.O.O.O.O.O.O.O.O.O.O.@.O.O.O.O.O.O.O.O.O.~ > # ^ O.O.O.O.O.O.O.O.O.O._ R _ / O.O.O.",
"O.O.O.O.O.O.O.O.h     o ; . O X # $ : { O.O.O.O.O.O.O.O.O.O.O.O.O.#.O.O.O.O.O.O.O.O.~   . % g P O.O.O.O.O.O.O.O.O.[ E / _ O.O.O.",
"O.O.O.O.O.O.O.5     . N A A Z j - , X K O.O.O.O.O.O.O.O.O.O.O.+.%.%.O.#.O.O.O.{ [ O.! # V A Z V 6 ] / [ O.O.O.O.O.O.[ _ / _ O.O.",
"O.O.O.O.O.O.^     g A A A Z A A A Z   + { O.O.O.O.O.O.O.O.O.O.O.%.#.@.#.O.O.O.W S O.H 6 6 6 6 6 6 F S _ O.O.O.O.O.O.O.O.` $.O.O.",
"O.O.O.O.O.O.< X N A A A A A A B A A - o O.O.O.O.O.O.O.O.O.O.O.O.#.O.O.O.o.O.O.F S O.[ 6 6 6 6 b ) S S O.O.O.O.O.O.O.O.-.=.=.O.O.",
"O.O.O.O.O.{ @ = y d A A A A A A A j p . H O.O.O.O.O.O.} O.} O.O.O.O.O.O.O.O.O.R S O.O.[ I L S S / F O.O.O.O.O.O.O.O.O.#.-.O.O.O.",
"O.O.O.O.O.{ o - y y C Z N j A A m y w # r O.O.O.O.O.o.O.O.O.} O.O.{ { o.O.O.{ o.{ O.O.O.O.] S F ( / O.O.{ O.O.O.O.O.O.O.O._ O.O.",
"O.O.O.O.O.O.& = y y e 6 6 6 6 i y y w = > O.O.O.O.O.O.O.O.O.O.O.O.O.O.O.O.O.+.O.O.O.O.O.O.o./ O./ _ O.o.O.O.O.O.O.} | O.O._ O.O.",
"O.O.O.O.O.O.; @ y y y 6 6 6 6 w y y w 5 # { O.O.O.O.O.O.O.O.O.O.O.O.O.O.O.O.O.O.O.O.O.O.O.O.O.O.O.O.O.O.O.O.O.O.O.}  .O.F ] ] O.",
"O.O.O.O.[ ] s # 2 z b 6 6 6 6 z x e M [ Y { _ o.O.O.O.O.O.O.O.O.O.O.O.} } } O.O.O.O.O.O.O.O.O.O.O.o.O.O.O.O.O.O.} _ [ O.F _ E o.",
"O.O.O.O.W E E ] O.S v y 9 6 6 b n [ / Y Y [ S _ O.O.O.O.O.O.O.O.O.O.O.O.} O.} } O.O.} O.O.O.} O.O.O.O.O.O.O.O.} { / [ O.W ` Y { ",
"O.O.O.O./ E R O.} D D Y U F R S / O./ F ) { / o.O.O.O.O.O.O.O.O.O.O.O.O.O.O.O.O.O.} O.} } O.} O.O.O.O.O.O.O.o.O...*.O.O.Q ' Y [ ",
"O.O.O.O.] / Y W { E / [ [ F S Y { _ F Y O.] F { O.O.O.O.O.O.O.O.O.O.O.O.O.O.O.O.O.O.O.} O.O.O.O.O.O.O.O.O.O.O.O.O.&.O.O.Q &./ O.",
"O.O.O.O.O.{ ( F O.Y / ] F _ U ( O./ D { O._ F { O.O.O.O.O.O.O.O.O.O.O.O.O.O.O.O.O.O.O.O.#.%.*.O.O.O.O.O.O.O.O.O.O.#.O.#.;.>.O.O.",
"O.O.O.O.O.O.{ F O._ _ ] F O.F [ O.o._ _ O.O.O.O.O.O.O.O.O.O.O.O.{ r l 1 ^ ^ { O.O.O.O.O.>.=.*.O.O.O.O.O.O.O.O.O.O.O.O.#.*.;.O.O.",
"O.O.O.O.O.O.O.R O.O.O.[ F O.U o.O.O._ D } O.{ O.O.O.O.O.O.O.[ 4 7 O > & 1 o = ] O.O.O.O.&.*.#.O.O.O.O.O.O.O.O.O.O.O.O.O.O.#.O.O.",
"O.O.O.O.O.O.O._ O.[ O.O.[ O.W O.O.O.O.[ O.O.o.O.O.@.O.O.O.O.< X a Z Z Z i k * # H [ o.O.O.O.O.O.O.O.O.O.O.O.O.O.O.O.O.O.O.O.O.O.",
"O.O.O.O.O.O.O.O.O.O.O.O.O.O.[ O.O.O.O.O.O.O.#.%.*.=.O.O.O.O.l 3 g A A A A A Z - . 0 _ _ O.O.O.O.O.O.O.O.O.O.O.O.O.O.O.O.O.O.O.O.",
"O.O.O.O.O.O.O.O.O.../ O.O.O.O.O.O.O.O.O.O.O.%.%.=.=.O.O.O.] . q f A A A A A A N O * } / ( O.O.O.O.O.O.O.O.O.O.O.O.O.O.O.O.O.O.O.",
"O.O.O.O.O.O.O.O.O.o.o.O.O.O.O.%.#.O.O.O.O.O.O.O.O.O.O.O.O.{ r y y C A A A A C y q w [ U F O.O.O.O.O.O.O.O.O.O.O.O.O.O.O.O.O.O.O.",
"O.O.O.O.O.O.O.O.O.O.O.O.O.O.O.*.-.O.O.O.O.O.Y O.O.O.O./ / [ 8 z y y N g g V y y t c [ F R O.O.O.O.O.O.O.O.O.O.O.O.O.O.O.O.O.O.O.",
"O.O.O.O.O.O.O.O.O.O.O.O.O.O.O.*.=.O.O.o.O.O.U O.O.] O.U Y ^ u v y y q 6 6 6 y y y F [ Y [ { _ / / O.O.O.O.O.O.O.O.O.O.O.O.O.O.O.",
"O.O.O.O.O.O.O.O.O.O.O.O.O.O.O.@.*.O.O.E O.O.W O.O.Y [ U F o.F n y y w 6 6 y y w ! F ] O.} ( S F F O.O.O.O.O.O.O.O.O.O.O.O.O.O.O.",
"O.O.O.O.O.O.O.O.O.O.O.O.O.O.O.O.O.O.O.E O.O.o.O.O.F [ W _ Y T / U U F 6 6 n y S ..F _ O.R D S D E O.O.O.O.O.O.O.O.O.O.O.O.O.O.O.",
"O.O.O.O.O.O.O.O.O.O.O.O.O.O.O.O.O.O.O./ O.O.O.O.O.Y [ ] o.F ..O.R _ S ..o.U ( S [ / ] O.U D D S E O.O.O.O.O.O.o.O.O.O.O.O.O.O.O.",
"O.O.O.O.O.O.O.O.O.O.O.O.O.O.O.O.O.O.O.O.O.O.O.O.O.] [ R O._ o.O._ U O.Y o.[ O./ } O.O.O.o.[ _ F E O.O.O.O.O.O.O.O.O.O.O.O.O.O.O.",
"O.O.O.O.O.O.O.O.O.O.O.O.O.O.O.O.O.O.O.O.O.O.O.O.O.O.[ Y O.O.O.O._ F } F O.O.O.O.O.O.O.O.O.O.O.o.{ O.O.O.O.O.O.O.O.O.O.O.O.O.O.O.",
"O.O.O.O.O.O.O.O.O.O.O.O.O.O.O.O.O.O.O.O.O.O.O.O.O.O.O.[ O.O.O.O.O./ O.F O.O.O.O.O.O.O.O.O.O.O.O.O.O.O.O.O.O.O.O.O.O.O.O.O.O.O.O.",
"O.O.O.O.O.O.O.O.O.O.O.O.O.O.O.O.O.O.O.O.O.O.O.O.O.O.O.O.O.O.O.O.O.O.O.] O.O.O.O.O.O.O.O.O.O.O.O.O.O.O.O.O.O.O.O.O.O.O.O.O.O.O.O.",
"O.O.O.O.O.O.O.O.O.O.O.O.O.O.O.O.O.O.O.O.O.O.O.O.O.O.O.O.O.O.O.O.O.O.O.O.O.O.O.O.O.O.O.O.O.O.O.O.O.O.O.O.O.O.O.O.O.O.O.O.O.O.O.O.",
"O.O.O.O.O.O.O.O.O.O.O.O.O.O.O.O.O.O.O.O.O.O.O.O.O.O.O.O.O.O.O.O.O.O.O.O.O.O.O.O.O.O.O.O.O.O.O.O.O.O.O.O.O.O.O.O.O.O.O.O.O.O.O.O.",
"O.O.O.O.O.O.O.O.O.O.O.O.O.O.O.O.O.O.O.O.O.O.O.O.O.O.O.O.O.O.O.O.O.O.O.O.O.O.O.O.O.O.O.O.O.O.O.O.O.O.O.O.O.O.O.O.O.O.O.O.O.O.O.O.",
"O.O.O.O.O.O.O.O.O.O.O.O.O.O.O.O.O.O.O.O.O.O.O.O.O.O.O.O.O.O.O.O.O.O.O.O.O.O.O.O.O.O.O.O.O.O.O.O.O.O.O.O.O.O.O.O.O.O.O.O.O.O.O.O.",
"O.O.O.O.O.O.O.O.O.O.O.O.O.O.O.O.O.O.O.O.O.O.O.O.O.O.O.O.O.O.O.O.O.O.O.O.O.O.O.O.O.O.O.O.O.O.O.O.O.O.O.O.O.O.O.O.O.O.O.O.O.O.O.O.",
"O.O.O.O.O.O.O.O.O.O.O.O.O.O.O.O.O.O.O.O.O.O.O.O.O.O.O.O.O.O.O.O.O.O.O.O.O.O.O.O.O.O.O.O.O.O.O.O.O.O.O.O.O.O.O.O.O.O.O.O.O.O.O.O.",
"O.O.O.O.O.O.O.O.O.O.O.O.O.O.O.O.O.O.O.O.O.O.O.O.O.O.O.O.O.O.O.O.O.O.O.O.O.O.O.O.O.O.O.O.O.O.O.O.O.O.O.O.O.O.O.O.O.O.O.O.O.O.O.O.",
"O.O.O.O.O.O.O.O.O.O.O.O.O.O.O.O.O.O.O.O.O.O.O.O.O.O.O.O.O.O.O.O.O.O.O.O.O.O.O.O.O.O.O.O.O.O.O.O.O.O.O.O.O.O.O.O.O.O.O.O.O.O.O.O.",
"O.O.O.O.O.O.O.O.O.O.O.O.O.O.O.O.O.O.O.O.O.O.O.O.O.O.O.O.O.O.O.O.O.O.O.O.O.O.O.O.O.O.O.O.O.O.O.O.O.O.O.O.O.O.O.O.O.O.O.O.O.O.O.O."
};
