/* XPM */
static char *_c6a82549859400dd99f9c7256274fd0FqfIy57zZS7fUWB2[] = {
/* columns rows colors chars-per-pixel */
"64 64 80 1 ",
"  c #3D2837",
". c #3E2A39",
"X c #422D3C",
"o c #45303F",
"O c #473241",
"+ c #4A3444",
"@ c #533B4D",
"# c #5B4153",
"$ c #654C5E",
"% c #684C60",
"& c #725569",
"* c #7A6171",
"= c #815775",
"- c #825876",
"; c #845B79",
": c #885F7D",
"> c #876D7F",
", c #8A6C81",
"< c #926A87",
"1 c #956A89",
"2 c #957B8E",
"3 c #997C90",
"4 c #A57F9A",
"5 c #9A8193",
"6 c #9F8398",
"7 c #A4879C",
"8 c #A8899E",
"9 c #AB87A1",
"0 c #A589A0",
"q c #AD89A3",
"w c #B18CA6",
"e c #B28EA8",
"r c #AE92A6",
"t c #B192A7",
"y c #B493AA",
"u c #B994AE",
"i c #B79AAE",
"p c #BA9BAF",
"a c #BC96B1",
"s c #BB98B1",
"d c #BEA1B5",
"f c #C59CB9",
"g c #CB9EBD",
"h c #C1A3B7",
"j c #C4A5BB",
"k c #CAA4BF",
"l c #C7AABE",
"z c #C9A9BF",
"x c #CDA2C0",
"c c #CCABC2",
"v c #D3A6C5",
"b c #D1AFC7",
"n c #D4A6C8",
"m c #D4ADC8",
"M c #DBACCC",
"N c #CFB2C6",
"B c #D1B1C7",
"V c #D5B4CC",
"C c #D5B5CC",
"Z c #D5B7CC",
"A c #D7B7CC",
"S c #D9B7CE",
"D c #DAB6CE",
"F c #D7B8CE",
"G c #DFB0D1",
"H c #DAB7D0",
"J c #DDB7D0",
"K c #DFB7D4",
"L c #DCB8D0",
"P c #E1B1D3",
"I c #E0B6D3",
"U c #E3B3D4",
"Y c #E3B7D6",
"T c #E5B6D7",
"R c #E1B8D5",
"E c #E6B8D7",
"W c #E7B7D8",
"Q c #E8B7DA",
"! c #E7B8D9",
"~ c #E9B8DA",
/* pixels */
"ZZZZZZZZZZZZZZZZZZZZZZZZZZZZZZZZZZZZZZZZZZZZZZZZZZZZZZZZZZZZZZZZ",
"ZZZZZZZZZZZZZZZZZZZZZZZZZZZZZZZZZZZZZZZZZZZZZZZZZZZZZZZZZZZZZZZZ",
"ZZZZZZZZZZZZZZZZZZZZZZZZZZZZZZZZZZZZZZZZZZZZZZZZZZZZZZZZZZZZZZZZ",
"ZZZZZZZZZZZZZZZZZZZZZZZZZZZZZZZZZZZZZZZZZZZZZZZZZZZZZZZZZZZZZZZZ",
"ZZZZZZZZZZZZZZZZZZZZZZZZZZZZZZZZZZZZZZZZZZZZZZZZZZZZZZZZZZZZZZZZ",
"ZZZZZZZZZZZZZZZZZZZZZZZZZZZZZZZZZZZZZZZZZZZZZZZZZZZZZZZZZZZZZZZZ",
"ZZZZZZZZZZZZZZZZZZZZZZZZZZZZZZZZZZZZZZZZZZZZZZZZZZZZZZZZZZZZZZZZ",
"ZZZZZZZZZZZZZZZZZZZZZZZZZZZZZZZZZZZZZZZZZZZZZZZZZZZZZZZZZZZZZZZZ",
"ZZZZZZZZZZZZZZZZZZZZZZZZZZZZZZZZZZZZZZZZZZZZZZZZZZZZZZZZZZZZZZZZ",
"ZZZZZZZZZZZZZZZZZZZZZZZZZZZZZZZZZZZZZZZZZZZZZZZZZZZZZZZZZZZZZZZZ",
"ZZZZZZZZZZZZZZZZZZZZZZZZZZZZZZZZZZZZZZZZZZZZZZZZZZZZZZZZZZZZZZZZ",
"ZZZZZZZZZZZZZZZZZZZZZZZZZZZZZZZZZZZZZZZZZZZZZZZZZZZZZZZZZZZZZZZZ",
"ZZZZZZZZZZZZZZZZZZZZZZZZZZZZZZZZZZZZZZZZZZZZZZZZZZZZZZZZZZZZZZZZ",
"ZZZZZZZZZZZZZZZZZZZZZZZZZZZZZZZZZZZZZZZZZZZZZZZZZZZZZZZZZZZZZZZZ",
"ZZZZZZZZZZZZZZZZZZZZZZZZZZZZZZZZZZZZZZZZZZZZZZZZZZZZZZZZZZZZZZZZ",
"ZZZZZZZZZZZZZZZZZZZZZZZZZZZZZZZZZZZZZZZZZZZZZZZZZZZZZZZZZZZZZZZZ",
"ZZZZZZZZZZZZZZZZZZZZZZZZZZZZZZZZZZZZZZZZZZZZZZZZZZZZZZZZZZZZZZZZ",
"ZZZZZZZZZZZZZZZZZZZZZZZZZZZZZZZZZZZZZZZZZZZZZZZZZZZZZZZZZZZZZZZZ",
"ZZZZZZZZZZZZZZZZZZZZZZZZZZZZZZZZZZZZZZZZZZZZZZZZZZZZZZZZZZZZZZZZ",
"ZZZZZZZZZZZZZZZZZZZZZZZZZZZZZZZZZZZZZZZZZZZZZZZZZZZZZZZZZZZZZZZZ",
"ZZZZZZZZZZZZZZZZZZZZZZZZZZZZZZZZZZZZZZZZZZZZZZZZZZZZZZZZZZZZZZZZ",
"ZZZZZZZZZZZZZZZZZZZZZZZZZZZZZZZZZZZZZZZZZZZZZZZZZZZZZZZZZZZZZZZZ",
"ZZZZZZZZZZZZZZZZZBZjiipddzZZZZZZZZZZZZZZZZZZZZZZZZZZZZZZZZZZZZZZ",
"ZZZZZZZZZZZZZZZZh.5.XXXXX.*ZZZZZZZZZZZZZZZZZZcccZZZZHWWWTSZZZZZZ",
"ZZZZZZZZZZZZZZN> XjcbbbcbzcBZZZZZZZZZZZZZZZlr. .BZWQWQWQWWRZZZZZ",
"ZZZZZZZZZZZZZZ2 ObbbbbbbbBo.ZZZZZ9ZZZZZZZZN.+3ckWQQQQQQWQQWZZZZZ",
"ZZZZZZZZZZZZZl  jbbbbbbbbb8 jZZZZ9ZZZZZZJWPOcBbm nQQQQWWQQWHZZZZ",
"ZZZZZZZZZZZZZh 670bbbbbbb08 hZZZ9ZZ-ZZZZWWW88yq8$TQQQQQQQQWSZZZZ",
"ZZZZZZZZZZZZZd.888bbbbbbb87XPWWI9Z9-ZZZZWQW78889MQQQQQWQQQQZZZZZ",
"ZZZZZZZZZZZZZ0.78880tyrr088,9WQQ9J9-ZZZZWQWWPqqqvQQQQQQWQQWZZZZZ",
"ZZZZZZZZZZZZHd.X88-8778888-QeQWTQQ9ZZZZZqQQQQTWWQQQQQQQ9QQJZZZZZ",
"ZZZZZZZZZZZSQQGow8:7877788-qqWWQWQWEZZZZ9QQWQWQQWQQQQQQ9QWHZZZZZ",
"ZZZZZ9ZZZZZHQQQWqq9w4#%q9q<qQQQQQQWWHZZZwfW9W9QQWQQQQQQ9Q9BwewcZ",
"ZZZZZ9ZZZZZSQWWQMuewqqqqqqnqQQQWWQQWYZZZqqw9Q9-QQQQQQqT9W9uq99sZ",
"ZZZZZ9ZZZZZZQQWQQQWQWWWTW!QWQQQQWQQWWZZZZsq999=QQWQQQ99wq9w9qjZZ",
"ZZZZZZZZZZZFQWQWQQQQQQQQWQQQQQQQW~QTWZZZZcsyyh=ZZLvkM9xqqw9wZZZZ",
"ZZZZZZZZZZZZWWQQ9QQQQQQQQQQWQQQQQQQTQZZZZZZZZZZZZZu9q9qqqqsZZZZZ",
"ZZZZZZZZZZZ9TT-QwQWQQQQQQQQQQQQQQQQQWKZZZZZZZZZZZZZZZZZZZZZZZZZZ",
"ZZZZZZZZZ9q9qw-9qQQQQQQQQQQQQQQQQQQQWQYZqZ9ZZZZZZZZZZZZZZZZZZZZZ",
"ZZZZZZZZu9ZZZZ=9ZQWQQQQQQQQQQQQQQQQQQWQWqS9ZZZZZZZZZZZZZZZZZZZZZ",
"ZZZZZZZZZ9eZZZZ9ZY~WQQQQQQQQQQQQQQQQQQWW9W9JZZZZZZZZZZZZZZZZZZZZ",
"ZZ9Z9ZZZZZZZZZZZZSWQQQQQQQQQQQQWTMPQQQQQQWWQKZZZZZZZZZZZZZZZZZZZ",
"ZZ9Z9=ZZZZZZZZZZZZqWW~QQQQQQQPMX@X@PGQQQQQQQQZZZZZZZZZZZZZZZZZZZ",
"ZZ9Z9=ZZZZZZZZZZZZ9WqQQQQQQQPX OmbbXXMMWQQWQ~JZZZZZZZZZZZ9ZZZZZZ",
"ZZZZZ=ZZZZZZZZZZZZ9q9QQQQQQQvXembbBb+X.gUQQQQTZZZZZZZZZ=Z9ZZZZZZ",
"ZZZ9ZZZZZZZZZZZZZw99qQQQQQQT.$8bbbbbbmoX.TQWWWZZZZZZZZZ=99ZZZZZZ",
"ZZZ9ZZZZZZZZZZZZZZZPQQQQQQQP&88BbbjqcbBh.MQQWWZZZZZZZZZ=9ZZZZZZZ",
"ZZZZZZZZZZZZZZZZZZZWWQQ9QQQQG88bbbbeqcbbonQQWQZZZZZZZZZZ9ZZZZZZZ",
"ZZZZZZZZZZZZZZZZZZZSW-QwQQQTP88bbBBbqwbcXnQQQWZZZZZZZZZZZZZZZZZZ",
"ZZZZZZZZZZZZZZZZZZZZW-qqQQ9QP;888888898toUWQQqZZZZZ9ZZZZZZZZZZZZ",
"ZZZFZZZZZZZZZZpsZZZZF;qM9Q9W9;888888888tUWWW9qZZZZZ9ZZZZZZZZZZZZ",
"ZZZZZZZZZZZqBZ99ZZZZZe999qq9919qqqqqq99wQT9a9wZZZZ9ZZ-ZZZZZZZ9ZZ",
"ZZZZZZ9ZZZZqzb9eZZZZZZcw99q99999999ww99wWw999qZZZZ9Z9-ZZZZZZZ9ZZ",
"ZZZZZZ9ZZZZwqq9yZZZZZZZZZZFZZcjqaasfkvbSJZ9ZZZZZZZ9Z9-ZZZZZZZ9ZZ",
"ZZZZZZ9Z9ZZZBBjBZZZZZZZZZZZZZZZZZZZZZZZZZZZZZZZZZZZZ9ZZZZZZZZZZZ",
"ZZZZZZ9Z9ZZZZZZZZZZZZZZZZZZZZZZZZZZZZZZZZZZZZZZZZZZZZZZZZZZZZZZZ",
"ZZZZ9ZZZ9ZZZZZZZZZZZZZZZZZZZZZZZZZZZZZZZZZZZZZ9ZZZZZZZZZZZFZZZZZ",
"ZZZZ9ZZZZZZZZZZZZZZZ-ZZZqZ9ZZZZZZZZZZZZZZZZZZZ9ZZZZZZZZZZZZZZZZZ",
"ZZZZ9ZZZZZZZZZZZZZZZ=ZZZ9Z9ZZZZZZZZZZZZZZZZZZZ9Z9ZZZZZZZZZZZZZZZ",
"ZZZZZZZZZZZZZZZZZZZZ=ZZZ9Z9ZZZZZZZZZZZZZZZZZZZZZ9ZZZZZZZZZZZZZZZ",
"ZZZZZZZZZZZZZZZZZZZZZZZZZZZZZZZZZZZZZZZZZZZZZZZZZZZZZZZZZZZZZZZZ",
"ZZZZZZZZZZZZZZZZZZZZZZZZZZZZZZZZZZZZZZZZZZZZZZZZZZZZZZZZZZZZZZZZ",
"ZZZZZZZZZZZZZZZZZZZZZZZZZZZZZZZZZZZZZZZZZZZZZZZZZZZZZZZZZZZZZZZZ",
"ZZZZZZZZZZZZZZZZZZZZZZZZZZZZZZZZZZZZZZZZZZZZZZZZZZZZZZZZZZZZZZZZ"
};
