/* XPM */
static char *_b2120a39ff94edee08de1690de61058xRROYwsHBFmfJ7rZ[] = {
/* columns rows colors chars-per-pixel */
"64 64 214 2 ",
"   c #2B1D3A",
".  c #321E3C",
"X  c #381F3B",
"o  c #2E233C",
"O  c #32213D",
"+  c #3D233D",
"@  c #3E2A3D",
"#  c #3C343E",
"$  c #3B3B3E",
"%  c #40223D",
"&  c #402A3E",
"*  c #270E4A",
"=  c #280F4B",
"-  c #2A1545",
";  c #271048",
":  c #2A114D",
">  c #321A42",
",  c #2E1451",
"<  c #301653",
"1  c #341956",
"2  c #34175C",
"3  c #361C59",
"4  c #391D5B",
"5  c #392645",
"6  c #3D3E42",
"7  c #3D225D",
"8  c #3C1C66",
"9  c #3F2069",
"0  c #442542",
"q  c #462846",
"w  c #4A2B4A",
"e  c #413842",
"r  c #4C2E55",
"t  c #54395D",
"y  c #422563",
"u  c #472A65",
"i  c #44246B",
"p  c #482C68",
"a  c #4A2D6B",
"s  c #53376C",
"d  c #492777",
"f  c #4E3273",
"g  c #513472",
"h  c #573976",
"j  c #573C7B",
"k  c #593E7C",
"l  c #603E7B",
"z  c #3D4146",
"x  c #3D4350",
"c  c #4B4453",
"v  c #4F4854",
"b  c #5C417E",
"n  c #664777",
"m  c #664E71",
"M  c #522C86",
"N  c #5D3A87",
"B  c #5B3295",
"V  c #5F3896",
"C  c #663B9B",
"Z  c #5D4281",
"A  c #634585",
"S  c #6D4A85",
"D  c #64448B",
"F  c #664A8C",
"G  c #684A89",
"H  c #6B4C8C",
"J  c #724E8A",
"K  c #6F578D",
"L  c #745789",
"P  c #74528D",
"I  c #6B4D93",
"U  c #694995",
"Y  c #704C92",
"T  c #6D5194",
"R  c #755594",
"E  c #7A5595",
"W  c #755A95",
"Q  c #795997",
"!  c #73549A",
"~  c #7C5C9A",
"^  c #7E619C",
"/  c #6D43A1",
"(  c #714CA4",
")  c #7C58A6",
"_  c #7E60A8",
"`  c #835C9A",
"'  c #866498",
"]  c #81619E",
"[  c #805DA1",
"{  c #835AA6",
"}  c #8759B4",
"|  c #8464A3",
" . c #8964A3",
".. c #8669A4",
"X. c #8A6AA5",
"o. c #8565AB",
"O. c #8B6CAB",
"+. c #8868AC",
"@. c #936DAB",
"#. c #8971A3",
"$. c #8E71AB",
"%. c #9273AD",
"&. c #9B72AE",
"*. c #9979A8",
"=. c #8C68B4",
"-. c #966AB5",
";. c #9272B4",
":. c #9A73B3",
">. c #967AB3",
",. c #9B7DB5",
"<. c #9473BC",
"1. c #9C75BB",
"2. c #967ABF",
"3. c #9E7ABC",
"4. c #AC7EAF",
"5. c #A37ABA",
"6. c #9775C5",
"7. c #9A76C2",
"8. c #9C7AC4",
"9. c #9E7BCC",
"0. c #A876C9",
"q. c #A17FCB",
"w. c #AA7CC9",
"e. c #A27FD0",
"r. c #9C83B8",
"t. c #A285BD",
"y. c #AB86B9",
"u. c #A58ABE",
"i. c #B48CBD",
"p. c #AB92BF",
"a. c #A886C7",
"s. c #A88FC3",
"d. c #B486C6",
"f. c #B48BCA",
"g. c #BC8ECB",
"h. c #AB92C4",
"j. c #AC9AC6",
"k. c #AE94C9",
"l. c #AF9BCA",
"z. c #B898C7",
"x. c #B49DCC",
"c. c #A481D3",
"v. c #A985D5",
"b. c #AA86DB",
"n. c #AE8ADE",
"m. c #B38DD4",
"M. c #B889D9",
"N. c #AF96D2",
"B. c #B998D6",
"V. c #B091DC",
"C. c #B4A2CC",
"Z. c #BAA1D3",
"A. c #BDA5DA",
"S. c #AF8BE1",
"D. c #B18DE3",
"F. c #B593E3",
"G. c #BB94E5",
"H. c #BB9BE3",
"J. c #BEA1E3",
"K. c #C294CC",
"L. c #C28FDE",
"P. c #C495D3",
"I. c #CC9CD3",
"U. c #C79AD8",
"Y. c #D19FDC",
"T. c #C5A1CC",
"R. c #C5A6D8",
"E. c #CFA4DC",
"W. c #C3ADDC",
"Q. c #D5A2DE",
"!. c #D7A6DC",
"~. c #C6B1DE",
"^. c #CCB4DC",
"/. c #D5B7DA",
"(. c #E3BDD7",
"). c #C39AE5",
"_. c #C59AE8",
"`. c #C99DE9",
"'. c #D39EE5",
"]. c #C1A5E3",
"[. c #C5ABE5",
"{. c #CAABE4",
"}. c #CEA0EA",
"|. c #D5A7E4",
" X c #DAA6E2",
".X c #DCAAE5",
"XX c #D3A4EB",
"oX c #DCABED",
"OX c #C7B1E1",
"+X c #CBB5E4",
"@X c #CEBAE6",
"#X c #CEB5E8",
"$X c #D2BCE5",
"%X c #D8BFE2",
"&X c #D8B3E8",
"*X c #D4BDE8",
"=X c #E0ACE7",
"-X c #E3AEEB",
";X c #E6B1EE",
":X c #E8B3EF",
">X c #E5B9E9",
",X c #EAB4F0",
"<X c #E8B7F0",
"1X c #DFC3DF",
"2X c #E4C7DD",
"3X c #D5C1E7",
"4X c #DAC1E4",
"5X c #D6C2E8",
"6X c #DBC6EA",
"7X c #DECAEB",
"8X c #E5CBEB",
"9X c #E2CDEB",
"0X c #E5D1ED",
"qX c #E8D4EE",
/* pixels */
",X,X,X,X,X,X,X,X,X,X,X,X,X,X,X,X,X,X,X,X,X,X,X,X,X,X,X,X,X,X,X,X,X,X,X,X,X,X,X,X,X:X:X:X,X,X,X,X,X,X,X,X,X,X,X,X,X,X,X,X,X,X,X,X",
",X,X,X,X,X,X,X,X,X,X,X,X,X,X,X,X,X,X,X,X,X,X,X,X,X,X,X,X,X,X:X>X;X,X,X,X,X,X,X,X,X,X:X:X,X,X,X,X,X,X,X,X,X,X,X,X,X,X,X,X,X,X,X,X",
",X,X,X,X,X,X,X,X,X,X,X,X,X,X,X,X,X,X,X,X,X,X,X,X,X:X,X,X,Xz.u.| >.!.%.Y. X Xd.` n &.;X,X,X,X,X,X,X,X,X,X,X,X,X,X,X,X,X,X,X,X,X,X",
",X,X,X,X,X,X,X,X,X,X,X,X,X,X,X,X,X,X,X,X,X,X:X*X$X*X*X4X3X/.^.^.Q a.~ Q k , H k u , 7 -X,X,X,X,X,X,X,X,X,X,X,X,X,X,X,X,X,X,X,X,X",
",X,X,X,X,X,X,X,X,X,X,X,X,X,X,X,X,X,X,X,X,X*X0X0X$X9X9X9X6X3X@X@Xs.+X@Xx.x.W./.] ~ P * 7 n :.,X,X,X,X,X,X,X,X,X,X,X,X,X,X,X,X,X,X",
",X,X,X,X,X,X,X,X,X,X,X,X,X,X,X,X,X,X,XqX0X7XqX9X6X6X@X6X0X0X@X@X$X@X@Xs.x.@X@X@XW.~ A : , : P -X,X,X,X,X,X,X,X,X,X,X,X,X,X,X,X,X",
",X,X,X,X,X,X,X,X,X,X,X,X,X,X,X,X,X8XqX0X0X@X0X7X9X$X@X@X$X@X@X*X@X@X$Xk.| H.@X@X@X%.@.w.C d : &.,X,X,X,X,X,X,X,X,X,X,X,X,X,X,X,X",
",X,X,X,X,X,X,X,X,X,X,X,X,X,X,X,X,X9X5X7X9X9X@X@X$X@X%X@X@X].@X@X@XJ.F.@XJ.D.+X@X@XW.] U.C B y P ,X,X,X,X,X,X,X,X,X,X,X,X,X,X,X,X",
",X,X,X,X,X,X,X,X,X,X,X,X,X,X;Xf.6X$X0X0X$X@X@X1XF.@X%X@XH.F.@X@X@X@X@X@X].H.@X@X[.@X..z.x.C y u ;X,X,X,X,X,X,X,X,X,X,X,X,X,X,X,X",
",X,X,X,X,X,X,X,X,X,X,X,X,X;Xg.0X*X9X$X@X@X@X@X@X@X$X$X@X@X@X@X@X@X@X@X@XF.D.+X@X].W.~ u.C.C : = ' P.:X,X,X,X,X,X,X,X,X,X,X,X,X,X",
",X,X,X,X,X,X,X,X,X,X,X,X,X@.qX9X5X@X@X@X@X@X@X@X@XF.@X@XF.@X@X@X@X@X@X@X[.@X@X@X+X~.~ | j.B : * * : y.,X,X,X,X,X,X,X,X,X,X,X,X,X",
",X,X,X,X,X,X,X,X,X,X,X,X Xs.0X7X@X@X@X@X@X@X@X@X@X%X@X@X@X@X@XH.@X@X@X+XF.@X@X+X@X+X~ s.x.B C : = : S ,X,X,X,X,X,X,X,X,X,X,X,X,X",
",X,X,X,X,X,X,X,X,X,X,X;XO.@X9X9X@X@X@X@X@X@X@X@X@X$X@X@X$XW.D.D.@X@X].D.F.@X+X@X8.+X+XX.d.V +.w.4 = u ,X,X,X,X,X,X,X,X,X,X,X,X,X",
",X,X,X,X,X,X,X,X,X,X-X! OX5X@X9X@X@X@X@X].+X@X@X@X@X$X@X@X....].W.+X@XOX[.[.+X~ Q ~ ] P.) ) j.L.7.= = .X,X,X,X,X,X,X,X,X,X,X,X,X",
",X,X,X,X,X,X,X,X,X,Xg.Q Z.@X@X0X@X].F.+XD.D.].@X@X@X$XJ.F.r.Q +X$.| ~.+X+X@XZ.~ ~ ~ :.) B >.C.B.3.M 7 J ,X,X,X,X,X,X,X,X,X,X,X,X",
",X,X,X,X,X,X,X,X,X:X .Q $X@X@X@X0X@X@X@X+X@X+X@X@X@XD.D.J.X.>.+Xx.| Z.+X@Xr.] c. .] B B ;.l.R.@X@Xo.Q 4 -X,X,X,X,X,X,X,X,X,X,X,X",
",X,X,X,X,X,X,X,X-X{ ~ 9Xh.@X@XH.+X@X@X@X@X@X+X@X@X@X+X@X@X$.x.~ ~ O.;.~ ~ ~ Q o.~ $.V C.W.C.OX@X@Xk.Q A 1 ;X,X,X,X,X,X,X,X,X,X,X",
",X,X,X,X,X,X,X,X~ Q ~ ~ | +X$X@X$X@X@X@X[.F.+X@X@XF.@X@Xt.~ u.~ b.F.B.p.~ ] 8.S.Z.+Xu.$.+Xx.@X@X@XN Q Q u ' ,X,X,X,X,X,X,X,X,X,X",
",X,X,X,X,X,X,X-Xd Q >.~ ~ ~ @X4X@X@X+XD.D.D.@X@X@X+X+X[...$...~.@Xx.~ ~ <.S.D.B.@X@X~.~ O.[ ~ ] @.y Q Q A = -X,X,X,X,X,X,X,X,X,X",
",X,X,X,X,X,X,XY.Q ~ ~ ~ Q Q ;.z.@X@X@XJ.J.@X@X+XA.N.] | D.S.D.@X*X| h.D.V.M.a #.~.@X$X@XW u t.Q Q R Q R A * d.,X,X,X,X,X,X,X,X,X",
",X,X,X,X,X,X:Xa H 4XM.OXO.Q Q o.n.+X@X$X$X@X@X@X@X$.h..X@XD.a.@X>Xa.S.D.U.K f (.$X@X@X0X6X.X=.N g Q R H b * 1 ,X,X,X,X,X,X,X,X,X",
",X,X,X,X,X,X.X, y 9X{.@X+Xq.~ Q Q a.W.&X@X+XW.@X@X>.H.F.+X| ~ J.=.Q w.m.I 3 /.2X@X@XqXqX0X6X@X@X~.G Q Q h * = -X,X,X,X,X,X,X,X,X",
",X,X,X,X,X;Xa : I 9X%.@XH.F.D.b.q.D.] ~ %.OX~.k.O.] F.D.].b.n.9.~ ~ h.F 1 b 2X@X5XqX0XqX@X^.@X$XW.W.8 f 1 = , Q.,X,X,X,X,X,X,X,X",
",X,X,X,X,XY.: D I d.Q A.F.OXR.| g A v.v.;.~ ;.7.<.c.D.+XA.| ,.~ ~ Q , * : #.4X6XqX6X@X@X@X[.@X@X~.W.+.D d i l S S :X,X,X,X,X,X,X",
",X,X,X,X,XQ.: -.I v.~ | ~ ~ ~ Q Q N d ,.>.^ D.V.F.F.R.r.Q | ~ ~ Q 1 : : y.@X3X9X9X@X@X@X@X@X+XF.@Xz.j.T ..B , * * Q.,X,X,X,X,X,X",
",X,X,X,X,X X= f I =.| ..<.| y.Q ~ ~ u.@Xh.A.a.X.A.$.~ ~ ~ ~ ~ r.< = V x.T.@X$XqX@X@X@X@X@X@X@X+X%Xi. Xj.j.( 9 1 * 1  X,X,X,X,X,X",
",X,X,X,X,X:X] : F I U.I OXr.~ V.D.:.%.@X@X@X%.] | ~ x.~ ~ ~ ~ P.* * M x.z.3X9X@X@X@X@X+X+X@XF.H.@Xd.5.C.h.I d : : = , g.,X,X,X,X",
",X,X,X,X,X,Xd.: F ! I I &X+X~ ~ n.~ ;.].D.H.|.v.~ >.U.~ ~ ~ u.W * * 7 j.F @X[.{.@X@X@X@X@XH.F.@X+Xi.d :.p.I M = 1 = h , -X,X,X,X",
",X,X,X,X,X,X X4 F F w.I f.@Xx.N.].q.F.O.3.D.S.D.l.V.D.q.t.7 3 K U 6.g j.+X@XD.D.+X@X@X+X@X@Xs.%.E.y.=.N ~ R U i 4 : E : K.,X,X,X",
",X,X,X,X,X,X,X;XU I I ! | @X$X$X@X~.! Q Q ;.N.V.D.D.x.2., , W : U 9.b.F.@XT.D.D.D.@X].;XB.n.c.B.Z.c.| F ~ Q ) M < = : , P.,X,X,X",
",X,X,X,X,X,X,X:XB.D.n.) &.s.x.W.@X+X| ,...~ 3 K ( } j.b * : : s h.1 c.b.Z.R n.D...k.S.m.S.m.V.j.1.~ F | ~ Q } d : : , : .X,X,X,X",
",X,X,X,X,X,X|.D.D.D.m.z.i.z.w.! 3.@X/ B C y r., : = 2 ^ a 4 , N K * , , Z i 7.D.~ ~ e.D.n.r.N 2.~ o.f.r.I V d : * : : 4 :X,X,X,X",
",X,X,X,X,XP.6.D.).V.z.@X$X0XqX*X&X$X9X4X^.*X$X=.3 : * = * * : 8 4 * * = < i f %.E ~ ..n.y.] ~ ~ ..Q A Q I N = : * , * S ,X,X,X,X",
",X,X,X,X.X! D.H.D.F.9X6XqXqXqX@X@X/.@XE.+X@X3.@.M.1.: , * * :     3 * * * R ~ +.Q ~ ~ v.~ ~ ~ ~ ~ Q Q Q Q R D , * h : g.,X,X,X,X",
",X,X,X,Xd.c.D.D.D.7X0X9X6X$X$X$X@X$X@X@X@X@Xy.~ +.M.-.* = @.      d.4 : * a ~ o.5.;.c.v.Q Q [ ~ | Q Q Q Q Q R : * 4 3 -X,X,X,X,X",
",X,X,X,X:X6X{.,.~ ~.7X5X$X$X$X@X@X@X@X@X@X@XV.X.~ M.-.* = L       -X3 , , * G ~ e.~ Q Q Q ~ 1.~ Q Q Q ~ U 4 = * = g Q.,X,X,X,X,X",
",X,X,X;X .M.>.~ <.].#XJ.@X@X@X@X@X@X@X$X@X@Xc.~ f.L.w.: : K.    m ,XE < N y , H Q R Q Q Q Q Q Q A Q [ a < = * = P.,X,X,X,X,X,X,X",
",X,X,X` = 1.~ v.+X@X*X[.$X@X+X+X@X@X@X@X$XJ.=.b.}.M.M.d = .X5     I.-Xt   3 , < g 1.f.A f H Q Q Q A , = * * = I.,X,X,X,X,X,X,X,X",
",X,X:X: <  .~ D.].@X$X@X@XD.D.D.[.%X@X@X@Xr.~ ;.7.M.0.8 , K.I.      '       D f j D I g < * : 1 1 : u * < = &.,X,X,X,X,X,X,X,X,X",
",X,X X* U :.~ b.<.{.@XA.+X].+XJ.D.R.@XW.X.] 8.~ b.{ U 2 - O :X5             y : : * - - : * * * = = < g !.@.;X,X,X,X,X,X,X,X,X,X",
",X,X5.* i m.~ 7...^ B.~ X.@X@X+XD.v.Z.~ Q ..7.9.j ! D * -   .XE.O .         5 *.!.m 5 5 o h E u 1 Q.;X,X,X,X,X,X,X,X,X,X,X,X,X,X",
",X,X5.* : k Q ~ h.Q Q ~ ~ x.@Xn.[ | ~ ] ~ ~ o.D +.3 * * -   !.,XI.          y.i.,X,X,X,X,X,X,X,X:X,X,X,X,X,X,X,X,X,X,X,X,X,X,X,X",
",X,X.X: : a Q ~ t.A.<.n.a.t.@X].~.>.~ | '.~ ~ Q a = * :     *.!.*.    + o       Q.:X=X;X,X,X,X,X,X,X,X,X,X,X,X,X,X,X,X,X,X,X,X,X",
",X,X;X3 8 y ~ o.Q 9.S.b.|.@XOXO.Z.OXE.@XOXO.Q ! , * ;             O X + # + X X o 5   m ,X,X,X,X,X,X,X,X,X,X,X,X,X,X,X,X,X,X,X,X",
",X,X,X&.: 1 Q Q Q Q ;.W.|.oX| ~ | +Xh.^ ~ ~ Q j * * y               o o     + .     s .X,X,X,X,X,X,X,X,X,X,X,X,X,X,X,X,X,X,X,X,X",
",X,X,X,X-.< , 5.| Q | @Xs.>.E.E.~ | ~ O.| Q I : * 1 Q..X4.0 + 6 + O o o >       5 n ,X,X,X,X,X,X,X,X,X,X,X,X,X,X,X,X,X,X,X,X,X,X",
",X,X,X,X;X/ 2 < I Q Q ~ %...~ ~ Q ~ R R Q 1 { L.K.-X,X,X,X!.% % % @ # $ 5     O  X,X,X,X,X,X,X,X,X,X,X,X,X,X,X,X,X,X,X,X,X,X,X,X",
",X,X,X,X,X-XB = y y R A k ~ ~ ~ ~ k Q Q Y Y '.,X,X,X,X,X,X,XI.w % # $ # % 0 O i.:XQ.:X,X,X,X,X,X,X,X,X,X,X,X,X,X,X,X,X,X,X,X,X,X",
",X,X,X,X,X,X X3 , = : 1 f D I Q ~ Q p : : ` ,X,X:X,X,X,X;XP.:.).% # @ % % % 0 ;XY.k .X,X,X,X,X,X,X,X,X,X,X,X,X,X,X,X,X,X,X,X,X,X",
",X,X,X,X,X,X,X,X.Xw.= : d i M I a , i `  X,X,X-XA  XG.T k k Z 0 % $ # % 0 % 0 v.6.k 5.,X,X,X,X,X,X,X,X,X,X`.,X,X,X,X,X,X,X,X,X,X",
",X,X,X,X,X,X,X,X,X,XJ * : = : = =  .:X,X,X,X,XQ.k F b k k k j % $ $ $ % % % % s k k I D.oX,X,X,X,XG.,X,X,XD.,X,X,X,X,X,X,X,X,X,X",
",X,X,X,X,X,X,X,X,X,X:Xy : a , : a -X,X,X`.,X_.U.k k k k k k c # z x 6 % % % % s k k k Z +.D.d.F.,XG.,X,X,XG.`.,X,X,X,X,X,X,X,X,X",
",X,X,X,X,X,X,X,X,X,X,X-X X,X-X-X,X).,X,XD.`.v.k k k s % 5 6 6 6 z $ 6 @ % % % % k k k k k I k 6.;.F.,X,X,X,X,X,X,X,X,X,X,X,X,X,X",
",X,X,X,X,X,X,X,X,X,X,X,X,X,X,X,X,X`.,X;Xn.! A k k j 0 + 6 ' 6 c & e $ $ % & v % % q k k k k k k k F @.[ Q.,X,X,X_.,X,X,X,X,X,X,X",
",X,X,X,X,X,X,X,X,X,X,X,X,X,X,X,X,X,XY.R A k k k k r % % % w m v % % $ e + % % % % % r k j k k k k A Z Z P P.,X,X_.,X,X,X,X,X,X,X",
",X,X,X,X,X,X,X,X,X,X,X,X,X,X,X-X,X,X-X| b Z F 0 % % % % @ 6 # 6 $ % % % % % % % % % % 0 w k k b k Z k _ ,X,X,X:X,X,XoX,X,X,X,X,X",
",X,X,X,X,X,XoX,X;XoX,X,X,XD.,XXXG.G.XXG.S.D.S % 0 q 0 0 c # % # c q % % e @ % t % % % % h k T k k b b.-X,X,XG.,X,X,X,X,X,X,X,X,X",
",X,X,X,X,X,XG.G.,X,X,X,X,XD.,X_.;XD.}.}.D.D.v.9.S.D.n.q.n % % 0 n % w h b +.n.9.k k s % % H Z b o.b.F.,X,XXX_.oX,X,X,X,X,X,X,X,X",
",X,X,X,X,X,X,X,X,X,X,X,X,XD.,XG.,X,X-X}.oX).D.D.D.D.D.D.c.q % % % w R A 9.D.D.b.Z T F j s k Z =.F.;X,X,X,X,XXX,X,XoX,X,X,X,X,X,X",
",X,X,X,X,X,X,X,X,X,X`.,X,X,XG.D.,X,X`.,X,XD.`.D.D.XXD.S.w % % n b.n.F.;X}.G.D.D.`._.S.c.=.+.c.G.oX,X,X,X,X,X,X,X,X,X,X,X,X,X,X,X",
",X,X,X,X,X,XF.,X,X,XG.,X,X,XG.,X,X,XG.G.XX,X;X-XD.D.D.S.% % r n.D.D.oX,X,X,X;XoX;X,XoXG.D.-XXX,X,X,X,X;XG.G.,X,X,X,X,X,X,X,X,X,X",
",X,X,X,X,X,X,X,X,X,X,X,X,X,X,X,XXX,X,XoX,X,XD.G.G.D.D.b.% P S.D.D.).,X,X,X,X,X,X,X,X,X;XG.,X,X,X,X,X,X,X,X,X,X,X,X,X,X,X,X,X,X,X",
",X,X,X,X,X,X,X,X,X,X,X,X,X,XXXG.,X,X,X,X;XD.G.D.F.F.D.D.b.D.XXoX;X,X,X,X,X,X,X,X,X,X,X,X,X,X,X,X).;X,X,X,X,X,X,X,X,X,X,X,X,X,X,X",
",X,X,X,X,X,X,X,X,X,X,X,X,X,X,X,X,X,X,X,X,X,X,X,X,X,X;XoXoXoX,X,X,X,X,X,X,X,X,X,X,X,X,X,X,X,X,X,X,X,X,X,X,X,X,X,X,X,X,X,X,X,X,X,X"
};
