/* XPM */
static char *_0bef5e8e20645c295434ed13a9820c6s2ypuniYy94Yhh7G[] = {
/* columns rows colors chars-per-pixel */
"64 64 154 2 ",
"   c #311E3E",
".  c #331F40",
"X  c #352143",
"o  c #392446",
"O  c #372843",
"+  c #392843",
"@  c #3C254B",
"#  c #3F2C4B",
"$  c #402C4E",
"%  c #43324D",
"&  c #442B53",
"*  c #462B5A",
"=  c #482F58",
"-  c #473651",
";  c #4C3A55",
":  c #503651",
">  c #573D57",
",  c #503D58",
"<  c #4F3660",
"1  c #513564",
"2  c #56346D",
"3  c #563869",
"4  c #5E3977",
"5  c #62425C",
"6  c #634A5D",
"7  c #5F4273",
"8  c #6A4A64",
"9  c #74536E",
"0  c #604577",
"q  c #684E7C",
"w  c #7C5A75",
"e  c #825776",
"r  c #825876",
"t  c #845F7A",
"y  c #81607C",
"u  c #8A627F",
"i  c #684681",
"p  c #6B4D82",
"a  c #6D418A",
"s  c #71448E",
"d  c #71488D",
"f  c #75548B",
"g  c #724691",
"h  c #764994",
"j  c #784B97",
"k  c #7B4D99",
"l  c #7D5D93",
"z  c #7E509C",
"x  c #8C6282",
"c  c #8D6C8A",
"v  c #906D87",
"b  c #96798E",
"n  c #8F719A",
"m  c #9A7791",
"M  c #9C7B94",
"N  c #94789B",
"B  c #9D7E9C",
"V  c #A07D97",
"C  c #8455A4",
"Z  c #845AA4",
"A  c #8656A8",
"S  c #8A5BAA",
"D  c #8C6CA3",
"F  c #9066AC",
"G  c #9A7DA2",
"H  c #9372AF",
"J  c #9364B4",
"K  c #9A69B9",
"L  c #9574B0",
"P  c #9876B0",
"I  c #A07EB0",
"U  c #A473C5",
"Y  c #A77AC4",
"T  c #A976CA",
"R  c #AC7BCD",
"E  c #B27FD4",
"W  c #A5829C",
"Q  c #A9859F",
"!  c #A28A9F",
"~  c #AB87A1",
"^  c #A78BA2",
"/  c #AD89A3",
"(  c #A385AB",
")  c #A689AA",
"_  c #A98CAC",
"`  c #B18DA7",
"'  c #B28EA9",
"]  c #AF93AB",
"[  c #B593AB",
"{  c #BA92AD",
"}  c #B298AE",
"|  c #B395B3",
" . c #BC97B1",
".. c #B798B6",
"X. c #BD9CB3",
"o. c #BB9DBB",
"O. c #BDA3B6",
"+. c #BDA0BB",
"@. c #C19CB7",
"#. c #C79CBA",
"$. c #CA9FBD",
"%. c #C2A5BC",
"&. c #C4A9BF",
"*. c #B085C7",
"=. c #B185CF",
"-. c #B58BC9",
";. c #B993C3",
":. c #B583D5",
">. c #B689D5",
",. c #BB8AD7",
"<. c #B683D9",
"1. c #BA86DC",
"2. c #BD8ADE",
"3. c #BE8BE1",
"4. c #C29EC6",
"5. c #C290DD",
"6. c #C5A6C2",
"7. c #CFA1C5",
"8. c #C7A8C2",
"9. c #CBADC4",
"0. c #C7A6CB",
"q. c #CBAACD",
"w. c #D3A6C5",
"e. c #D0A9C7",
"r. c #D6A8C8",
"t. c #DAAECC",
"y. c #CEB0C6",
"u. c #CEB0C8",
"i. c #D0B4C7",
"p. c #D5B5CD",
"a. c #D5B6CC",
"s. c #D5B7CC",
"d. c #D9B5CE",
"f. c #D6B8CD",
"g. c #CAA1D0",
"h. c #CCA9D1",
"j. c #D6A5D0",
"k. c #D2AED1",
"l. c #DEAFD0",
"z. c #DDB6D1",
"x. c #D5B9D1",
"c. c #DDB8D2",
"v. c #E5B5D5",
"b. c #E7B6D9",
"n. c #C08BE3",
"m. c #C08CE3",
"M. c #C18DE4",
"N. c #C390E1",
"B. c #C490E7",
"V. c #C691E9",
"C. c #CA95ED",
"Z. c #D39EF7",
"A. c #D49FF8",
"S. c #D6A1FA",
/* pixels */
"s.s.s.s.s.s.s.s.s.s.s.s.s.s.s.s.s.s.s.s.s.s.s.s.s.s.s.s.s.s.s.s.s.s.s.s.s.s.s.s.s.s.s.s.s.s.s.s.s.s.s.s.s.s.s.s.s.s.s.s.s.s.s.s.",
"s.s.s.s.s.s.s.s.s.s.s.s.s.s.s.s.s.s.s.s.s.s.s.s.s.s.s.s.s.s.f.x.x.s.s.s.s.s.s.s.s.s.s.s.s.s.s.s.s.s.s.s.s.s.s.s.s.s.s.s.s.s.s.s.",
"s.s.s.s.s.s.s.s.s.s.s.s.s.s.s.s.s.s.s.s.s.s.m.N.m.m.m.m.N.m.2.2.3.m.m.m.m.m.m.2.m.-.i.s.s.s.s.s.s.s.s.s.s.s.s.s.s.s.s.s.s.s.s.s.",
"s.s.s.s.s.s.s.s.s.s.s.s.s.s.s.s.s.s.s.s.s.s.m.m.N.m.m.m.m.m.m.M.3.n.m.m.m.m.m.m.m.m.l i.s.s.s.s.s.s.s.s.s.s.s.s.s.s.s.s.s.s.s.s.",
"s.s.s.s.s.s.s.s.s.s.s.s.s.s.s.s.N.m.m.m.m.m.m.m.m.m.M.m.m.m.m.m.m.m.m.M.m.m.m.3.m.m.m.<.D _ s.s.s.s.s.s.s.s.s.s.s.s.s.s.s.s.s.s.",
"s.s.s.s.s.s.s.s.s.s.s.s.s.s.s.s.m.m.m.m.m.m.m.m.m.m.m.m.m.m.m.m.m.m.m.m.m.m.m.m.n.m.n.m.2.T n i.s.s.s.s.s.s.s.s.s.s.s.s.s.s.s.s.",
"s.s.s.s.s.s.s.s.s.s.s.s.s.s.s.s.m.m.m.m.m.m.C.S.S.S.Z.m.m.m.m.m.m.m.m.m.m.m.m.m.m.m.m.m.J a i ) s.s.s.s.s.s.s.s.s.s.s.s.s.s.s.s.",
"s.s.s.s.s.s.s.s.s.s.s.s.s.s.N.m.m.m.m.m.m.M.S.S.S.S.A.m.m.m.m.m.m.m.m.m.m.m.m.m.m.m.m.m.:.a a T s.s.s.s.s.s.s.s.s.s.s.s.s.s.s.s.",
"s.s.s.s.s.s.s.s.s.s.s.s.s.s.3.m.m.m.m.m.Z.S.S.S.S.S.A.m.m.m.m.m.m.m.m.m.m.m.m.m.m.m.m.m.m.S a Z s.s.s.s.s.s.s.s.s.s.s.s.s.s.s.s.",
"s.s.s.s.s.s.s.s.s.s.s.s.s.s.m.m.m.m.m.m.S.S.S.S.S.S.Z.m.m.m.m.m.m.m.m.m.m.m.m.m.m.m.m.m.m.k a z *.%.s.s.s.s.s.s.s.s.s.s.s.s.s.s.",
"s.s.s.s.s.s.s.s.s.s.s.s.s.2.m.m.m.m.m.m.S.S.S.S.V.m.m.m.m.m.m.m.m.m.m.m.m.m.m.m.m.m.m.m.m.z a a g d _ s.s.s.s.s.s.s.s.s.s.s.s.s.",
"s.s.s.s.s.s.s.s.s.s.s.s.9.m.m.m.m.m.m.m.Z.S.S.Z.m.m.m.m.m.m.m.m.m.m.m.m.m.m.m.m.m.m.m.m.m.z a k a a h i.s.s.s.s.s.s.s.s.s.s.s.s.",
"s.s.s.s.s.s.s.s.s.s.s.i.>.m.m.m.m.m.m.m.M.M.m.m.m.m.m.m.m.m.m.m.m.m.m.m.m.m.m.m.m.m.m.m.3.a h m.z a a s.s.s.s.s.s.s.s.s.s.s.s.s.",
"s.s.s.s.s.s.s.s.s.s.i.P n.A.S.S.Z.M.M.M.m.m.m.m.m.m.m.m.m.m.m.m.m.m.m.m.m.m.m.m.m.m.m.3.:.a a m.<.a a 9.s.s.s.s.s.s.s.s.s.s.s.s.",
"s.s.s.s.s.s.s.s.s.s.2.m.m.S.S.S.S.S.S.S.M.m.m.m.m.m.m.m.m.m.m.m.m.m.m.m.m.m.m.m.m.m.T s a a g m.3.a a R s.s.s.s.s.s.s.s.s.s.s.s.",
"s.s.s.s.s.s.s.s.s.s.2.m.m.A.S.S.S.S.S.Z.m.m.m.m.m.m.m.m.m.m.m.m.m.m.m.m.m.m.m.m.m.m.h j j a U m.m.U k J i.s.s.s.s.s.s.s.s.s.s.s.",
"s.s.s.s.s.s.s.s.5.m.m.m.m.M.V.V.M.M.M.M.m.m.m.m.m.m.m.m.m.m.m.m.m.m.m.m.m.m.m.m.m.m.1.3.3.2.n.m.m.m.E R f i.s.s.s.s.s.s.s.s.s.s.",
"s.s.s.s.s.s.s.s.2.n.m.m.2.3.m.m.m.m.m.m.m.m.m.m.m.m.m.m.m.m.m.m.m.m.m.m.m.m.m.m.m.m.m.m.m.m.m.m.m.m.m.m.m.B s.s.s.s.s.s.s.s.s.s.",
"s.s.s.s.s.s.s.i.R >.m.1.A A <.n.m.m.m.m.m.m.m.m.m.m.m.m.m.m.m.m.m.m.m.m.m.m.m.m.m.m.m.m.m.m.m.m.m.m.m.n.m.7 i.s.s.s.s.s.s.s.s.s.",
"s.s.s.s.s.s.s.6.=.2.m.<.A A A S 1.m.m.m.m.m.m.m.m.m.m.m.m.m.m.m.m.m.m.m.m.m.o m.m.m.m.m.m.m.m.m.m.m.m.m.m.f | s.s.s.s.s.s.s.s.s.",
"s.s.s.s.s.s.s.Y 3.m.m.3.A A A A 1.m.m.m.m.m.m.m.m.m.m.m.m.m.m.m.m.m.m.m.m.m.X m.m.m.m.m.m.m.m.m.m.m.m.m.m.C j s.s.s.s.s.s.s.s.s.",
"s.s.s.s.s.s.9.2.3.m.m.m.3.R A A 2.m.m.m.n.3.3.3.m.m.m.m.m.m.m.m.3.s a h & = m.m.m.M.m.m.m.m.m.m.m.m.m.m.3.a a 4.s.s.s.s.s.s.s.s.",
"s.s.s.s.s.i.:.m.3.m.m.m.m.m.3.3.E 1.2.3.S A A A 3.m.m.m.m.m.m.a a a a g X 7 m.m.M.S.S.S.m.m.m.m.m.m.3.a a a a ;.s.s.s.s.s.s.s.s.",
"s.s.s.s.s.6.n.m.1.1.3.m.m.m.m.<.A A A A A A A A 1.m.m.m.m.m.2.a a k @ X m.m.m.m.M.S.S.S.m.m.m.m.m.m.m.s a a a j K s.s.s.s.s.s.s.",
"s.s.s.s.s.8.3.n.h a a J m.m.m.2.A A A A A A 3.3.m.m.m.m.m.3.g a g X   X m.m.m.m.m.S.S.S.m.m.m.m.m.m.m.3.3.2.g a s j.c.s.s.s.s.s.",
"s.s.s.s.s.9.3.1.a a s a 1.m.m.m.2.R 1.3.3.3.m.m.m.m.m.m.m.3.a a @ X 3.m.m.m.M.B.V.S.S.S.M.m.m.m.m.m.m.m.m.m.:.a g   5.s.s.s.s.s.",
"s.s.s.s.s.s.G p a a a a U T <.2.m.m.m.m.m.m.m.m.m.m.m.m.m.n.a a & @ m.m.m.M.S.S.S.S.S.S.M.m.m.m.m.m.m.m.m.m.m.a s .   o.s.s.s.s.",
"s.s.s.s.s.s.| 0 C s g a a a s s 3.m.m.m.m.m.m.m.m.m.m.m.m.m.a a @ = 3.m.m.M.S.S.S.S.S.S.M.m.m.m.m.m.m.m.m.m.m.a s h X   y.s.s.s.",
"s.s.s.s.s.s.9.q D H n.E a a a a 1.m.m.m.m.3.3.m.n.2.3.m.m.m.a j n.2.m.n.m.m.M.M.V.B.m.M.m.m.m.m.m.m.m.m.m.m.m.3.a a .   o.s.s.s.",
"s.s.s.s.s.s.s.s.D L m.m.j a a h 2.m.m.3.g a a a a a a m.2.a a U m.m.m.m.m.m.n.m.n.m.m.m.M.M.m.m.m.m.m.m.m.m.m.m.a a     o.s.s.s.",
"s.s.s.s.s.s.s.m.m.m.3.>.,.3.1.3.m.m.m.1.a a a a a a a a h a j m.m.m.m.m.3.3.n.m.n.m.m.m.n.m.m.m.m.m.m.m.m.m.3.m.a a     6.s.s.s.",
"s.s.s.s.s.s.0.m.m.m.m.m.m.m.m.m.M.M.n.3.g a a 1 @ X @ a a a $ + + + 3.3.j s E m.m.m.m.m.m.m.M.3.m.m.m.m.m.M.m.<.a a X X h.s.s.s.",
"s.s.s.s.s.2.m.m.m.m.m.M.M.M.m.m.m.m.m.n.m.3.3.3.1   X & g S + + + + + # a a j M.m.m.m.m.m.3.m.m.m.m.m.m.m.3.1.z a a @ X s.s.s.s.",
"s.s.s.s.q.m.m.A.S.S.S.S.S.S.m.m.m.m.m.m.m.m.m.n.2.R @ # + + + + + + + + a a h m.m.m.m.m.m.m.m.m.M.m.m.3.T a a a a a = | s.s.s.s.",
"s.s.s.N.m.m.M.S.S.S.S.S.S.S.M.m.m.m.m.m.m.m.m.m.3.a g + + + + + + | + + a a h m.m.m.m.m.m.m.m.n.m.m.2.j a a a a 1     8.s.s.s.s.",
"s.s.s.m.m.m.V.S.S.S.S.S.S.Z.m.m.m.m.m.m.m.m.m.m.3.a a + + # + + + y.+ + s a h 3.m.m.m.m.m.m.m.m.3.3.h a a 2 . X .     i.s.s.s.s.",
"s.s.s.m.m.m.M.S.S.S.S.V.m.m.m.m.m.m.m.m.m.m.M.m.m.a a $ + ^ + + + s.; + < a a J 2.3.m.m.n.m.n.E J h a a a X     o.s.s.s.s.s.s.s.",
"s.s.s.2.m.m.m.Z.S.S.Z.m.m.m.m.m.m.m.m.m.m.2.m.m.3.a a + + e.+ + + %.z.+ + k a a a C <.1.2.E h a a a a a a   o +.s.s.s.s.s.s.s.s.",
"s.s.s.R m.m.m.m.m.m.m.m.m.m.m.m.m.m.m.m.3.j m.m.3.a a + + O.^ + + + + + + 3 a a a a a a a a a a s & X o .   X s.s.s.s.s.s.s.s.s.",
"s.s.9.m.m.m.m.m.m.n.m.m.m.m.m.m.m.m.m.2.a a m.m.3.a a + + # 9.+ + + + + + + s a a a s s a a a * @         o u.s.s.s.s.s.s.s.s.s.",
"s.s._ j z m.m.m.m.n.m.m.m.m.m.m.m.3.1.j a a m.n.<.a j + + + 9.[ + + + + + + % ) 2.3.F . . X     # +.i.i.s.s.s.s.s.s.s.s.s.s.s.s.",
"s.s.c a a m.m.m.m.m.m.m.m.m.m.m.1.g a a s 3.m.n.h a # + + + &.s.X.+ + + + + ] } s.k.f   . . o 1 i.s.s.s.s.s.s.s.s.s.s.s.s.s.s.s.",
"s.s.W a a <.m.2.m.m.m.m.m.m.m.m.3.U g S 1.n.m.3.a a + + + + ! 9.! + + + + + + + %.i.i.i.s.s.s.s.s.s.s.s.s.s.s.s.s.s.s.s.s.s.s.s.",
"s.s.~ g a a 2.m.m.n.m.m.m.m.m.m.m.m.m.m.C C C j a a + + + + + O + + + + + + + + + + + , s.s.s.s.s.s.s.s.s.s.s.s.s.~ s.s.s.s.s.s.",
"s.s.s.( a a <.m.m.m.m.m.n.m.m.m.m.m.m.3.a a a a a z + + + + + + + + + + + + + + + + + ; s.s.s.s.s.s.s.s.s.s.s.r s.` s.s.s.s.s.s.",
"s.s.s./ I a g m.m.m.m.m.M.m.m.m.m.n.m.J a h @   X o %.9.6 + + + + + + + + + + + + - 9.s.s.s.s.s.s.s.s.s.s.s.s.r ~ / s.s.s.s.s.s.",
"s.s.s.~ s.a a 3.m.3.m.m.m.n.m.n.m.z z a h     ;...y.s.s.i.% + + + + + + + + + + o.s.s.s.s.s.s.s.s.s.s.s.s.s.s.r / s.s.s.s.s.s.s.",
"s.s.s.s.s.9.Z p s g 3.m.m.3.m.m.a a a a 4   g.8.f.s.s.s.s.y.b + + + + + + + + # s.s.s.s.s.s.s.s.s.s.s.s.s.s.s.s./ s.s.s.s.s.s.s.",
"s.s.s.s.s.s.9.p C S 3.3.m.m.3.3.C @ X X   o v.{ s.s.s.d.s.} ^ + + + + + + + + + s.s.s.s.s.s.s.s.s.s.s.s.s.s.s.s.s.s.s.s.s.s.s.s.",
"s.s.s.s.s.s.s.s.q.2.m.E s a a h 1 X   o 7.r / s.s.s.X.v.s.t W + + + + + + + + # s.s.z.z.s.v.s.s.s.s.s./ s.s.s.s.s.s.s.s.s.s.s.s.",
"s.s.s.f.s.s.s.s.s.s.n @ o o @ . X N i.s.f.r / s.s.d.~ b.~ t W + + + + + + + + # s.s.z.z.~ z.s.s.s.s.s./ s.s.s.s.s.s.s.s.s.s.s.s.",
"s.s.s.s.s.s.s.s.s.s.9.X         o 9.s.d.z.v./ v.z.z./ v.~ x # + + O + + + + + + 9.s.~ b.~ s.s.s.s.s.~ s.s.u s.s.s.s.s.s.s.~ s.s.",
"s.s.s.s.s.s.~ s.s.s.s.i.8.i.W ' s.s.v.v.v.v.v.v.b.v.#.+ + + + + + + + + + + + + @.v.~ r.`  .&.i.s.s.~ s.~ x s.s.s.s.s.s.s.~ s.s.",
"s.s.s.s.s.s.~ s.s.s.s.s.s.s./ @.d.v.v.v.v.` / / / B : + + + + + + + + + + + + + + + ~ ~ ~ ~ ~ ~ ~ ~ ~ v.~ x s.s.s.s.s.s.s.~ s.s.",
"s.s.s.s.s.s.~ s.~ s.s.s.s.s.s.d.v.v.v.v.v./ [ Q W + + + + + + + + + + + + + + + + + w W Q ~ ~ ~ / s. .v./ s.d.d.s.s.s.s.s.s.s.s.",
"s.s.s.s.s.s.~ s.~ s.s.s.z.v.v.v.v.v.v.v.[ ~ W # + + + + + + + + + + + + + + + + + + + + 8 ~ ~ ~ / s.[ v.v.v.v.v.v.v.s.s.s.s.s.s.",
"s.s.s.s.~ s.s.s./ s.s.v.v.v.v.v.v.v.l./ ~ ~ t + + + + + + + + + + + + + + + + + + + + # v ~ ~ ~ / 9.~ ' $.t.v.v.v.v.v.z.s.s.s.s.",
"s.s.s.s.~ s.s.s.s.s.z.v.v.v.v.{ ` / / / r ~ W M W ~ Q V w + + + + + > V Q M Q ~ ~ Q c 5 5 M ~ ~ ~ ~ ~ ~ ~ ~ ~ / { v.v.v.d.s.s.s.",
"s.s.s.s.~ s.s.s.s.d.v.v.v.w.~ ~ ~ ~ ~ ~ e ~ ~ ~ ~ ~ ~ ~ W + + + + # V ~ ~ ~ ~ ~ ~ ~ ~ W m Q ~ ~ ~ ~ ~ ~ ~ ~ ~ ~ / v.v.v.z.s.s.s.",
"s.s.s.s.s.s.d.v.v.v.v.v.t.~ ~ ~ ~ ~ ~ ~ e ~ ~ ~ ~ ~ ~ Q + + + 9 W Q ~ ~ ~ ~ ~ ~ ~ ~ ~ ~ ~ ~ ~ ~ ~ ~ ~ ~ ~ ~ ~ / ~ v.v.v.v.s.s.s.",
"s.s.s.s.s.v.v.v.v.v.v.v.@./ / / / ~ ~ / ~ ~ ~ ~ ~ ~ ~ W + + # Q ~ ~ ~ ~ ~ ~ ~ ~ ~ ~ ~ ~ ~ ~ ~ ~ ~ ~ ~ ~ ~ ~ ~ ~ ~ v.v.v.v.s.s.s.",
"s.s.s.s.d.v.v.v.v.v.v.v.d.' / / ~ ~ ~ ~ ~ ~ ~ ~ ~ ~ ~ Q 5 y ~ / / / / / / / / / / / / / / / / / / / / / / / / X.d.v.v.v.v.s.s.s.",
"s.s.s.s.s.z.z.v.z.d.s.d.v.v.v.v.v.v.v.v.z.d.d.t.d.d.z.z.s.z.z.z.z.v.v.v.v.v.v.v.v.v.v.v.v.v.v.v.v.v.v.v.v.v.v.v.v.v.v.v.s.s.s.s.",
"s.s.s.s.s.s.s.s.s.s.s.s.s.s.z.z.z.z.z.v.v.v.v.v.v.v.v.v.v.v.v.v.v.v.v.v.z.z.z.z.z.z.z.z.d.z.z.d.d.d.d.d.d.d.d.d.s.s.s.s.s.s.s.s."
};
