/* XPM */
static char *_7e53e8e61f841b0b949d4fa90ccb836jLQnGBDo6H1d2gth[] = {
/* columns rows colors chars-per-pixel */
"64 64 172 2 ",
"   c #292333",
".  c #2E2738",
"X  c #2F2839",
"o  c #332C3D",
"O  c #362E40",
"+  c #3A3245",
"@  c #3E364A",
"#  c #423A4D",
"$  c #463D52",
"%  c #4A3F59",
"&  c #4D465A",
"*  c #554B63",
"=  c #584F66",
"-  c #594D6C",
";  c #5D526C",
":  c #655974",
">  c #6B5F7F",
",  c #6C607C",
"<  c #70607F",
"1  c #6A5B80",
"2  c #7A6987",
"3  c #736788",
"4  c #75658E",
"5  c #776790",
"6  c #7C6C94",
"7  c #7F6F98",
"8  c #7F7097",
"9  c #807394",
"0  c #8C7397",
"q  c #84749C",
"w  c #8B68AB",
"e  c #8B7BA3",
"r  c #A57EBC",
"t  c #9774C3",
"y  c #9976C5",
"u  c #9B78C7",
"i  c #9E7ACB",
"p  c #4C9A9C",
"a  c #4F9FA1",
"s  c #59A4A9",
"d  c #57AAAC",
"f  c #58ACAE",
"g  c #5FAEB0",
"h  c #65ACAE",
"j  c #6FA2B0",
"k  c #61ABB0",
"l  c #76A3B1",
"z  c #66B3B5",
"x  c #6FB7B9",
"c  c #9484AB",
"v  c #988AAF",
"b  c #9D8DB4",
"n  c #9F8FB8",
"m  c #A28EAC",
"M  c #A191B6",
"N  c #A393BA",
"B  c #A997BA",
"V  c #A898BF",
"C  c #85A7B9",
"Z  c #8FA5BE",
"A  c #97A1BE",
"S  c #B38FCA",
"D  c #AB9BC2",
"F  c #A681D5",
"G  c #A884D6",
"H  c #AC87DC",
"J  c #AF8ADE",
"K  c #B38AD3",
"L  c #B08BDE",
"P  c #BC91D5",
"I  c #89A9C0",
"U  c #96A9C6",
"Y  c #82BCC0",
"T  c #91BAC6",
"R  c #AEA0C2",
"E  c #B1A2C6",
"W  c #B8A6C6",
"Q  c #B4A4CB",
"!  c #B9A6CD",
"~  c #B6A9CB",
"^  c #BBA9CD",
"/  c #BEADD5",
"(  c #BFB1D6",
")  c #B38DE4",
"_  c #B790E5",
"`  c #BB93E5",
"'  c #BF98E5",
"]  c #C599D7",
"[  c #C79DD6",
"{  c #CF9EDF",
"}  c #C1A1CE",
"|  c #C6B2CE",
" . c #C6A2D3",
".. c #C1AED3",
"X. c #C8AAD7",
"o. c #CFAADC",
"O. c #D2AADE",
"+. c #C2B2D6",
"@. c #C3B4D9",
"#. c #CCB4DA",
"$. c #C7B8DC",
"%. c #CABBDD",
"&. c #D6B5DE",
"*. c #D0BCDD",
"=. c #C197E6",
"-. c #C399E7",
";. c #C89BE7",
":. c #C69BE8",
">. c #CA9EE9",
",. c #CEA2EA",
"<. c #CFA9EC",
"1. c #D3A3E4",
"2. c #D9A7E6",
"3. c #DBABE4",
"4. c #D4A5EB",
"5. c #DCABEC",
"6. c #CCBFE0",
"7. c #DBB5E4",
"8. c #DABCE5",
"9. c #DAB1EF",
"0. c #DBB4F0",
"q. c #E2AEED",
"w. c #E6B2EE",
"e. c #E9B4EF",
"r. c #E5B9EC",
"t. c #EABBEE",
"y. c #E7B2F0",
"u. c #EAB4F0",
"i. c #ECBBF2",
"p. c #8EC4C7",
"a. c #8DC7C9",
"s. c #94CACD",
"d. c #9CCDD1",
"f. c #B4C1DA",
"g. c #CDC0DF",
"h. c #CEC1E1",
"j. c #D1C4E3",
"k. c #DBC4E5",
"l. c #D6C9E6",
"z. c #D9C9E6",
"x. c #DEC5E9",
"c. c #DDCDE9",
"v. c #E3C5EC",
"b. c #E9C2EF",
"n. c #E2CEEA",
"m. c #E9CBEE",
"M. c #E5D3EC",
"N. c #E9D5EE",
"B. c #E9D9EF",
"V. c #EEC2F4",
"C. c #EACCF1",
"Z. c #F1C4F6",
"A. c #F2C9F7",
"S. c #F4CBF8",
"D. c #EAD5F1",
"F. c #E9D9F0",
"G. c #EADDF1",
"H. c #F5D0F9",
"J. c #F8D5FC",
"K. c #EAE3F2",
"L. c #EBE6F3",
"P. c #EBE3F4",
"I. c #EBE6F4",
"U. c #EBE8F5",
"Y. c #EBEDF6",
"T. c #EBEEF6",
"R. c #EBF0F7",
"E. c #ECF1F7",
"W. c #EBF4F8",
"Q. c #ECF8F9",
"!. c #ECFBFA",
"~. c #EDFCFB",
/* pixels */
"u.u.u.u.u.u.u.u.u.u.u.u.u.u.u.u.u.u.u.u.u.u.u.u.u.u.u.u.u.u.u.u.u.u.u.u.u.u.u.u.u.u.u.u.u.u.u.u.u.u.u.u.u.u.u.u.u.u.u.u.u.u.u.u.",
"u.u.u.u.u.u.u.u.u.u.u.u.u.u.u.u.u.u.u.u.u.u.u.u.u.u.u.u.u.u.u.u.u.u.u.u.u.u.u.u.u.u.u.u.u.u.u.u.u.u.u.u.u.u.u.u.u.u.u.u.u.u.u.u.",
"u.u.u.u.u.u.u.u.u.u.u.u.u.u.u.u.u.u.u.u.u.u.u.u.u.u.u.u.u.u.u.u.u.u.u.u.u.u.u.u.u.u.u.u.u.u.u.u.u.u.u.u.u.u.u.u.u.u.u.u.u.u.u.u.",
"u.u.u.u.u.u.u.u.u.u.u.u.u.u.u.u.u.u.u.u.u.u.u.u.u.u.u.u.u.u.u.u.u.u.u.u.u.u.u.u.u.u.u.u.u.u.u.u.u.u.u.u.u.u.u.u.u.u.u.u.u.u.u.u.",
"u.u.u.u.u.u.u.u.u.u.u.u.u.u.u.u.u.u.u.u.u.u.u.u.u.u.u.u.u.u.u.u.u.u.u.u.u.u.u.u.u.u.u.u.u.u.u.u.u.u.u.u.u.u.u.u.u.u.u.u.u.u.u.u.",
"u.u.u.u.u.u.u.u.u.u.u.u.u.u.u.u.u.u.u.u.u.u.u.u.u.u.u.u.u.u.u.u.u.u.u.u.u.u.u.u.u.u.u.u.u.u.u.u.u.u.u.u.u.u.u.u.u.u.u.u.u.u.u.u.",
"u.u.u.u.u.u.u.u.u.u.u.u.u.u.u.u.u.u.u.u.u.u.u.u.u.u.u.u.u.u.u.u.u.u.u.u.u.u.u.u.u.u.u.u.u.u.u.u.u.u.u.u.u.u.u.u.u.u.u.u.u.u.u.u.",
"u.u.u.u.u.u.u.u.u.u.u.u.u.u.u.u.u.u.u.u.u.u.u.u.u.u.u.u.u.u.u.u.u.u.u.u.u.u.u.u.u.u.u.u.u.u.u.u.u.u.u.u.u.u.u.u.u.u.u.u.u.u.u.u.",
"u.u.u.u.u.u.u.u.u.u.u.u.u.u.u.u.u.u.u.u.u.u.u.u.u.u.u.u.u.u.u.u.e.u.e.u.u.u.u.u.u.u.u.u.u.u.u.u.u.u.u.u.u.u.u.u.u.u.u.u.u.u.u.u.",
"u.u.u.u.u.u.u.u.u.u.u.u.u.u.u.u.u.u.u.u.u.u.u.u.u.u.u.u.u.e.u.u.u.u.u.u.u.u.u.u.u.u.u.u.u.u.u.u.u.u.u.u.u.u.u.u.u.u.u.u.u.u.u.u.",
"u.u.u.u.u.u.u.u.u.u.u.u.u.u.u.u.u.u.u.u.u.u.u.u.u.u.u.u.T s.C e.u.w.Z Y l w.u.u.u.u.u.u.u.u.u.u.u.u.u.u.u.u.u.u.u.u.u.u.u.u.u.u.",
"u.u.u.u.u.u.u.u.u.u.u.u.u.u.u.u.u.u.u.u.u.u.u.u.u.u.u.f.s.z a.h w.p.s.g p s u.u.u.u.u.u.u.u.u.u.u.u.u.u.u.u.u.u.u.u.u.u.u.u.u.u.",
"u.u.u.u.u.u.u.u.u.u.u.u.u.u.u.u.u.u.u.u.u.u.u.u.u.u.u.d.f f f f A s.f f p p e.u.u.u.u.u.u.u.u.u.u.u.u.u.u.u.u.u.u.u.u.u.u.u.u.u.",
"u.u.u.u.u.u.u.u.u.u.u.u.u.u.u.u.u.u.u.u.u.u.u.u.u.u.u.s.f f f f f f f d p a u.u.u.u.u.u.u.u.u.u.u.u.u.u.u.u.u.u.u.u.u.u.u.u.u.u.",
"u.u.u.u.u.u.u.u.u.u.u.u.u.u.u.u.u.u.u.u.u.u.u.u.u.u.u.j x f f f f f f p p U u.u.u.u.u.u.u.u.u.u.u.u.u.u.u.u.u.u.u.u.u.u.u.u.u.u.",
"u.u.u.u.u.u.u.u.u.u.u.u.u.u.u.u.u.u.u.u.u.u.u.u.u.u.u.w.k f f f f d p p s e.u.u.u.u.u.u.u.u.u.u.u.u.u.u.u.u.u.u.u.u.u.u.u.u.u.u.",
"u.u.u.u.u.u.u.u.u.u.u.u.u.u.u.u.u.u.u.u.u.u.u.u.u.u.u.u.u.s p d d p p p e.u.u.u.u.u.u.u.u.u.u.u.u.u.u.u.u.u.u.u.u.u.u.u.u.u.u.u.",
"u.u.u.u.u.u.u.u.u.u.u.u.u.u.u.u.i.C.P.C.C.b.u.u.u.u.u.u.u.e.p p p p p e.u.u.e.u.u.u.u.e.v.v.z.j.z.e.u.u.u.u.u.u.u.u.u.u.u.u.u.u.",
"u.u.u.u.u.u.u.u.u.u.u.u.u.b.N.W.~.~.~.!.W.T.N.b.u.u.u.u.u.u.w.p p p e.u.u.u.u.u.u.r.j.j.j.j.j.j.j.j.k.e.u.u.u.u.u.u.u.u.u.u.u.u.",
"u.u.u.u.u.u.u.u.u.u.u.u.m.P.~.~.~.R.K.G.F.N.N.N.m.u.u.u.u.u.u.O.I w.u.u.e.u.u.u.e.j.j.M.W.!.M.j.j.j.$.h.e.u.u.u.u.u.u.u.u.u.u.u.",
"u.u.u.u.u.u.u.u.u.u.u.b.B.~.~.I.N.N.N.N.N.N.N.N.N.i.u.u.u.u.e.u.u.u.u.u.u.u.u.u.b.c.W.~.~.!.B.N.c.j.$./ z.e.u.u.u.u.u.u.u.u.u.u.",
"u.u.u.u.u.u.u.u.u.u.u.n.E.~.!.N.N.N.N.N.N.N.N.N.N.b.u.u.u.u.u.u.u.u.u.u.u.u.u.u.N.!.~.T.N.N.N.N.M.j.h.+.+.*.e.u.u.u.u.u.u.u.u.u.",
"u.u.u.u.u.u.u.u.u.u.r.q M.U.T.N.N.N.N.N.N.N.N.N.N.m.u.u.u.u.u.u.u.u.u.u.u.u.u.V.T.~.G.N.N.N.N.N.M.j.j.j./ +.w.u.u.u.u.u.u.u.u.u.",
"u.u.u.u.u.u.u.u.u.u.r.q c.K.T.N.N.N.N.N.N.N.N.N.N.m.e.u.u.u.u.u.u.u.u.u.u.u.u.N.!.K.N.N.N.N.N.N.N.z.j.$./ 9 0 u.u.u.u.u.u.u.u.u.",
"u.u.u.u.u.u.u.u.u.u.r.e @.j.l.N.N.N.N.N.N.N.N.N.N.N.u.u.u.u.u.u.u.u.u.u.u.u.u.T.~.B.N.N.N.N.N.N.N.j.j.@.+.$ O w.u.u.u.u.u.u.u.u.",
"u.u.u.u.u.u.u.u.u.u.i.e 5 D j.c.N.N.N.N.N.N.N.N.N.m.u.u.u.u.u.u.u.u.u.u.u.u.u.N.!.N.N.N.N.N.N.N.z.j.@.6.%.o # e.u.u.u.u.u.u.u.u.",
"u.u.u.u.u.u.u.u.u.u.e.B 6 5 R h.z.N.N.N.N.N.N.N.N.m.b.u.u.u.u.u.u.u.u.u.u.e.i.N.R.N.N.N.N.N.N.M.j.h./ / M o  .u.u.u.u.u.u.u.u.u.",
"u.u.u.u.u.u.u.u.u.u.u.8.b 5 5 E %.j.c.N.N.N.N.N.N.N.N.G.U.I.L.I.I.U.I.K.D.N.N.N.N.N.N.N.N.N.N.j.h.+./ / ; $ w.u.u.u.u.u.u.u.u.u.",
"u.u.u.u.u.u.u.u.u.u.u.t.k.! ! v 6 v M l.N.N.c.M.N.N.N.L.!.!.!.!.!.!.!.!.E.N.N.N.N.N.N.N.N.M.j.h./ q v + + 3.u.u.u.u.u.u.u.u.u.u.",
"u.u.u.u.u.u.u.u.u.e.u.u.t.*.q 4 6 n 6 ~ @.E / j.N.N.N.N.N.N.N.N.N.N.N.N.N.N.N.N.N.N.N.N.N.l.$.N 5 4 % @ [ u.u.u.u.u.u.u.u.u.u.u.",
"u.u.u.u.u.u.u.u.u.u.u.u.u.e.#.q 4 5 q q 5 5 c.M.N.N.N.N.N.N.N.N.N.N.N.N.N.N.N.N.N.N.N.N.n./ 6 5 e @ m e.u.u.u.u.u.u.u.u.u.u.u.u.",
"u.u.u.u.u.u.u.u.u.u.u.u.u.u.u.N.*.W b k.*.M.N.N.N.N.N.N.N.N.N.M.M.M.M.M.M.M.N.M.N.M.$.j.h.@./ / / $ | u.u.u.u.u.u.u.u.u.u.u.u.u.",
"u.u.u.u.u.u.u.u.u.u.u.u.u.t.D.B.U.N.N.N.N.N.N.N.N.z.j.j.j.l.j.j.j.j.j.6.%.j.j.+.j.h.+.h.j.j.j.%./ D $.e.u.u.u.u.e.u.u.5.u.u.u.u.",
"u.u.u.u.u.u.u.u.u.u.u.u.b.N.T.~.!.N.N.N.N.N.N.N.l.j.j.h.g.j.j.j.j.j.j.h.%.+.j.6.j.j.j.j.j.j.l.j./ +.! / e.u.u.u.t.u.' q.q.u.u.u.",
"u.u.u.u.u.u.u.u.u.u.u.i.N.$.!.~.F.N.N.N.N.N.c.j.h.h.+.j.j.j.j.j.j.@.@.+.^ ^ q c / j.j.j.j.j.j.j.%.$./ ! ! u.e.5.w.u.' 5.>.u.u.u.",
"u.u.u.u.u.u.u.u.u.u.u.v.$.T.!.B.N.N.N.N.N.M.j.j./ ! . # & # O o $ + 9 , = E b c ! j.j.j.j.j.j.j.j.@./ +.q 6.e.4.w.u.,.9.-.e.u.u.",
"u.u.u.u.u.u.u.u.u.u.u.x.( !.L.N.N.N.N.N.M.j.j.j.+.3 o = D ! E D ....../ / ! Q q V j.j.j.j.j.j.j.j.$.+.+.D D u.Z.u.u.<.0.-.w.u.u.",
"u.u.u.u.u.u.u.u.u.u.e.+.+.!.B.N.N.N.N.N.j.j.j.$.e % : u.e.u.u.u.u.u.u.u.u.u.w.8 q +.j.j.j.j.j.j.h.+./ D D 3 7.V.u.u.<.V.4.u.u.u.",
"u.u.u.u.u.u.u.u.u.u.e.! z.N.N.N.c.j.M.n.j.j.%.M 6 N X.u.u.u.u.u.u.u.e.u.u.u.u.b 8 e j.j.j.j.j.j.j.+.@.6 5 3 7.i.u.i.S.H.u.u.u.u.",
"u.u.u.u.u.u.u.u.u.u.e.q v N.N.N.l.j.j.j.j.j.( 6 e M w.u.u.u.u.u.u.u.e.u.u.u.u.7.9 9 @.D ( j.j.j.j.h.6 4 4 - O.u.u.i.A.S.u.u.u.u.",
"u.u.u.u.u.u.u.e.u.u.u.k.k.N.N.c.j.j.j.j.j.E / M 6 b u.u.u.u.u.u.u.u.u.u.u.u.u.e.D 8 c 6 6 @.h.$.h.E 4 5 $ O 3.u.u.u.u.i.u.u.u.u.",
"u.u.u.u.u.u.u.' u.u.u.r.q ! M.j.h.j.h.h.Q M 7 b ; D u.u.u.u.u.u.u.u.u.u.u.u.u.u.8.b q 5 q D ! ! b 4 6 6 + : w.w.u.u.u.u.u.u.u.u.",
"u.u.u.u.u.u.4._ u.u.u.e.e 6 ! 6 E Q q e 6 q 4 * o 3.u.u.u.u.u.u.u.u.u.u.u.u.u.u.u.@.b 6 c 4 4 4 5 5 9 + % o.u.u.u.u.u.u.u.u.u.u.",
"u.u.u.u.u.u.;._ u.u.u.u.r.6 q q 6 q 6 5 5 4 1 X ! u.u.u.u.u.u.u.u.u.u.u.u.u.u.u.u.u./ D e 4 6 c 4 % o >  .e.u.u.u.u.u.u.u.e.5.e.",
"u.u.u.u.u.u.5.e.u.u.u.i.A.7.c 6 q 5 4 M q 3   } u.u.u.u.u.u.u.u.u.u.u.u.u.i.u.u.u.i.i.#.N @ O o $ o < 3.e.u.u.u.u.u.u.u.[ :.) q.",
"u.u.u.u.u.u.y.u.u.4.w.y.i.u.e.7.#.: ! # ; 2 3.u.u.u.u.u.u.u.u.u.u.u.u.u.u.i.u.u.u.u.u.u.r.k.&.3.w.e.u.u.u.u.u.e.e.w.S ' 5.) -.u.",
"u.w.,.u.u.u.u.u.5.:.5.4.u.u.u.u.u.e.w.e.u.u.u.u.u.u.u.u.u.u.u.u.u.u.V.Z.u.u.u.u.u.-.u.u.u.u.4.4.u.u.u.u.u.u.u.t r 2.) ) 5.-.u.u.",
"u.5.) u.S.S.u.u.w.>.4.5.u.u.u.u.u.u.u.u.u.u.u.u.u.u.u.u.u.u.u.u.u.u.i.A.u.u.u.u.u.=.u.u.q.u.-.-.3.u.e.u.u.5.5.i w w.` >.q.5.u.u.",
"u.u._ u.J.S.u.u.u.w.5.4.5.u.u.u.u.u.u.u.u.u.u.u.u.u.u.u.u.u.u.u.u.u.u.A.u.u.>.u.u.,.u.u.-.w.-.' u.-.u.u.1.u q.u w.u.5.u.5.q.u.u.",
"u.u.u.u.J.S.u.u.u.u.u.5.i.u.u.u.u.u.u.u.u.u.u.u.u.u.w.u.e.4.e.u.u.u.u.u.u.u.>.u.u.u.u.u.' w.,.5.-.;.5.u.q.u e.e.u.u.u.u.u.u.u.u.",
"u.u.u.u.V.i.u.u.u.u.S.A.A.u.u.u.u.u.u.u.u.u.u.u.w.2.u q.q.) w.e.>.w.u.u.u.u.4.u.u.u.u.u.-.w.q.e.=.u.u.>.5.' u.u.u.u.u.u.u.u.u.u.",
"u.u.u.e.w.u.u.u.u.u.i.S.u.u.u.u.u.u.u.y.5.u.u.w.y P i 1.u ) q.5.) q.w.y.u.e.u.u.u.u.u.u.q.w.:.u.5.u.e.5.-.u.:.u.u.u.u.u.u.u.u.u.",
"u.u.u.4._ ' e.u.u.u.u.u.5.u.u.u.u.u.q.4.) u.u.1.i L u J i F y ) ) ) ) ) ) _ ` :.4.w.u.-.u.q.-.u.u.u.q.i _ w.' e.u.u.u.u.u.u.u.u.",
"u.u.u.4._ _ y.u.e.u.u.u.u.u.e.u.q.) w.;.=.>._ ) u ) ) L i ) i L ) ) ) ) ) ) ) ) ) ) ) ) P _ 2.u.u.u.] i K u _ u.u.u.u.u.u.u.u.u.",
"u.u.u.w.,.u.u.u.u.u.w.u.u.e.J L w.) -.` ) ) ) ) ) ) ) ) G ) u ) ) ) ) ) ) ) ) ) ) ) ) ) u ) u q.u.u.5.u 1.i 5.u.u.u.w.' e.u.u.u.",
"u.u.u.u.u.u.u.u.u.5.u.u.u.>.) 4.u.4.` ) ) ) ) ) ) ) ) ) ) ) J ) ) ) ) ) ) ) ) ) ) ) u G i H i 4.u.u.u.w.u.u.u.u.u.u.w.' 5.4.u.u.",
"u.u.u.u.u.e.5.u.2.u q.1.=.) -.e.5._ =.) ) ) ) ) ) ) ) ) ) ) ) ) ) ) ) ) ) ) ) ) ) ) i H u u H ) e.u.u.u.u.u.u.u.u.5.w.' 4.' u.u.",
"u.u.u.u.e.4.-.u.P i 1.u ] =.5.u.4._ e.-.) ) ) ) ) ) ) ) ) ) ) ) ) ) ) ) ) ) ) ) ) ) u ) H u J _ u.u.>.' u.u.u.u.u.-.5.>.5.' u.u.",
"u.u.u.u.u.e._ u.{ u 1.i ] _ w.u.u.5.5.y.w.>.) ) ) ) ) ) ) ) ) ) ) ) ) ) ) ) ) ) ) ) ) ) ) ) ) w.u.u.>._ u.u.u.u.u.:.5.q.q.' u.u.",
"u.u.u.u.u.u.:.u.u.q.w.u q.=.u.u.u.5._ ) w.e.u.q.>.` _ _ _ _ _ ) ) ) ) ) ) ) ) ) ) ) ) ) _ 4.u.u.u.u.:.' ' 5.u.u.u.>.5.u.w.>.u.u.",
"u.u.u.u.u.u.5.u.w.u.u.q.u.,.u.u.u.u.5.) w.u.u.u.u.u.5.=.u.u.u.u.e.w._ >.y.q.5.q.q.q.y.u.u.u.u.u.u.u.4.4._ 5.u.u.u.4.w.u.u.u.u.u.",
"u.u.u.u.u.u.u.u.u.u.u.u.u.w.u.u.u.u.u.) u.u.u.u.u.u.u.u.u.u.u.u.u.u.:.5.u.u.u.u.u.u.u.u.u.u.u.u.u.u.u.u.u.u.u.u.u.e.u.u.u.u.u.u.",
"u.u.u.u.u.u.u.u.y.4.u.u.u.u.u.u.u.u.u.u.u.u.u.u.u.u.u.u.u.u.u.u.u.u.u.u.u.u.u.u.u.u.u.u.u.u.u.u.u.u.u.u.u.u.u.u.u.u.u.u.u.u.u.u.",
"u.u.u.u.u.u.u.u.u.u.u.u.u.u.i.i.u.u.u.u.u.u.u.u.u.u.u.u.u.u.u.u.u.u.u.u.u.u.u.u.u.u.u.u.u.u.u.u.u.u.u.u.u.u.u.u.u.u.u.u.u.u.u.u."
};
