/* XPM */
static char *_90215fab89f40e782f90fde494b7b4dExMFYs0nvLxlWuFN[] = {
/* columns rows colors chars-per-pixel */
"64 64 96 2 ",
"   c #675B7D",
".  c #6A5D7E",
"X  c #815775",
"o  c #825877",
"O  c #835878",
"+  c #6C5F81",
"@  c #6E6182",
"#  c #716485",
"$  c #746689",
"%  c #766989",
"&  c #7A6D8D",
"*  c #837695",
"=  c #847895",
"-  c #87799B",
";  c #8B7F9D",
":  c #8B79A3",
">  c #4C888E",
",  c #4D8B91",
"<  c #508F95",
"1  c #55A9AB",
"2  c #5BABAD",
"3  c #62AAAE",
"4  c #65ABB0",
"5  c #7CC3C5",
"6  c #AB889F",
"7  c #9589A3",
"8  c #9A85B4",
"9  c #9C89B6",
"0  c #9E8AB9",
"q  c #AB87A1",
"w  c #AC8AA2",
"e  c #B08CA6",
"r  c #B492AB",
"t  c #A18EBA",
"y  c #A494BD",
"u  c #BD9BB3",
"i  c #C5A9BC",
"p  c #A997C1",
"a  c #AF9FC6",
"s  c #BCAACF",
"d  c #BCACD0",
"f  c #C0B6C7",
"g  c #CEB0C6",
"h  c #CCB4CB",
"j  c #D1B1C7",
"k  c #D5B7CC",
"l  c #D8B7CE",
"z  c #D6B8CD",
"x  c #DAB8CF",
"c  c #C1B3D6",
"v  c #C7B9D4",
"b  c #C5B7DA",
"n  c #C7B9DA",
"m  c #CBBDDD",
"M  c #DBB7D1",
"N  c #D9BDD1",
"B  c #85CACC",
"V  c #BBC6D7",
"C  c #CDC0DF",
"Z  c #DBD0DC",
"A  c #CFC2E1",
"S  c #D1C4E3",
"D  c #D6C9E5",
"F  c #DACEE6",
"G  c #E1D6E1",
"H  c #E3D8E3",
"J  c #E8DEE7",
"K  c #EBDFE9",
"L  c #CBEAEB",
"P  c #D4E7EB",
"I  c #D4EBED",
"U  c #D6EFF0",
"Y  c #D7F0F1",
"T  c #DDF2F2",
"R  c #E5E7EF",
"E  c #EFE2EB",
"W  c #EBE0ED",
"Q  c #EDE3EC",
"!  c #E9E6EE",
"~  c #EFE5EF",
"^  c #E1E9EE",
"/  c #E5EAEE",
"(  c #EBE9EF",
")  c #EDE9EF",
"_  c #F1E7EE",
"`  c #F3E9EF",
"'  c #EAE9F0",
"]  c #EEE9F0",
"[  c #F2E7F0",
"{  c #F2E9F0",
"}  c #F4E9F0",
"|  c #F6EFF4",
" . c #F8F5F8",
".. c #FBF9FB",
"X. c #FDFAFB",
"o. c white",
/* pixels */
"k k k k k k k k k k k k k k k k k k k k k k k k k k k k k k k k k k k k k k k k k k k k k k k k k k k k k k k k k k k k k k k k ",
"k k k k k k k k k k k k k k k k k k k k k k k k k k k k k k k k k k k k k k k k k k k k k k k k k k k k k k k k k k k k k k k k ",
"k k k k k k k k k k k k k k k k k k k k k k k k k k k k k k k k k k k k k k k k k k k k k k k k k k k k k k k k k k k k k k k k ",
"k k k k k k k k k k k k k k k k k k k k k k k k k k k k k k k k k k k k k k k k k k k k k k k k k k k k k k k k k k k k k k k k ",
"k k k k k k k k k k k k k k k k k k k k k k k k k k k k k k k k k k k k k k k k k k k k k k k k k k k k k k k k k k k k k k k k ",
"k k k k k k k k k k k k k k k k k k k k k k k k k k k k k k k k k k k k k k k k k k k k k k k k k k k k k k k k k k k k k k k k ",
"k k k k k k k k k k k k k k k k k k k k k k k k k k k k k k k k k k k k k k k k k k k k k k k k k k k k k k k k k k k k k k k k ",
"k k k k k k k k k k k k k k k k k k k k k k k k k k k h B B k k k k B 1 k k k k k k k k k k k k k k k k k k k k k k k k k k k k ",
"k k k k k k k k k k k k k k k k k k k k k k k k k k h 5 B 1 3 k k B B 1 4 k k k k k k k k k k k k k k k k k k k k k k k k k k k ",
"k k k k k k k k k k k k k k k k k k k k k k k k k k B B 1 1 1 f h B 1 1 1 1 k k k k k k k k k k k k k k k k k k k k k k k k k k ",
"k k k k k k k k k k k k k k k k k k k k k k k k k k B 2 1 1 1 2 B B 1 1 1 > k k k k k k k k k k k k k k k k k k k k k k k k k k ",
"k k k k k k k k k k k k k k k k k k k k k k k k k k 5 1 1 1 1 1 1 1 1 1 > > k k k k k k k k k k k k k k k k k k k k k k k k k k ",
"k k k k k k k k k k k k k k k k k k k k k k k k k k k 1 1 1 1 1 1 1 1 , > k k k k k k k k k k k k k k k k k k k k k k k k k k k ",
"k k k k k k k k k k k k k k k k k k k k k k k k k k k k 1 1 1 1 1 1 > < k k k k k k k k k z k k k k k k k k k k k k k k k k k k ",
"k k k k k k k k k k k k k o.o.o.o.o.o.z k k k k k k k k k 1 1 1 1 > , k k k k k k k k k k o.o._   . $ k k k k k k k k k k k k k ",
"k k k k k k k k k k k z z ..L L L U  .z z k k k k k k k k k 2 1 > < k k k k k k k k k k z o.o.{ { { + k z z k k k k k k k k k k ",
"k k k k k k k k k z o.o.o.o.I L L ^ { { _ E k k k k k k k k h , , k k k k k k k k k o.o.o.o.o.{ ` ` & 7 . # z k k k k k k k k k ",
"k k k k k k k k k k o.I L L L ^ { { { { { { k k k k k k k k k k h k k k k k k k k k o.o.o.o.o.{ { ` { { { & k k k k k k k k k k ",
"k k k k k k k k k k . L L I ^ ` { { { ` { { k k k k k k k k k k k k k k k k k k k k v L L ( { { { { { { { + k k k k k k k k k k ",
"k k k k k k k k k z % L ( } ` { { { { ` { ` z k k k k k k k k k k k k k k k k k k h y L L ] { { { ` } { { . z k k k k k k k k k ",
"k k k k k k k k . _ { { { { } { { { { ( L I { ` k k k k k k k k k k k k k k k k 9 y V L P { { { { } _ [ _ + # . k k k k k k k k ",
"k k k k k k k k . { { ` { { { { { { { R L L I { k k k k k k k k k k k k k k k k 0 L L L I { { { { D S S 9 8 9 . k k k k k k k k ",
"k k k k k k k z . { { { { { { { { { { S S L L { k k k k k k k k k k k k k k k h t L L L / { { { _ S S b 8 8 8 & z k k k k k k k ",
"k k k k k k k k . . @ ` { { { { { { ~ S S L L { k k k k k k k k k k k k k k k h y L L { { { { { S S S d 8 @ @ % k k k k k k k k ",
"k k k k k k k k z k . _ { { { { { { S S S L L { k k k k k k k k k k k k k k k h y L L { { { { _ S m 8 8 8 = k z M k z k k k k k ",
"k k k k k k k k k k . _ _ { { { { _ S S S L L { k k k k k k k k k k k k k k k h t L L { { ` S A m 8 8 8 8 $ k k k k k k k k k k ",
"k k k k k k k k k k % _ _ { { { S S S S S L I { z z z z k z k k k k k k z z z h 0 L L { { _ S 9 8 8 8 @ % . k k k k k k k k k k ",
"k k k k k k k k k k k N ~ _ ` { S S S S D L ` } o.o.o.o.o.o.o.o.o.o.o.o.o.o.o. .Q L L _ S S A 8 8 @ . . N k k k k k k k k k k k ",
"k k k k k k k k k k k k k z . { { ` { ` { { { } o.o.o.T Y L L L L L L L L L L L L L L ! S S S 8 0 . z k k k k k k k k k k k k k ",
"k k k k k k k k k k k k k z . { { { { { { { { ` } { ' I L L L L L L L L L L L L L L L { S S S t p @ z k k k k k k k k k k k k k ",
"k k k k k k k k k k k k k z . { { { { { { { { { { { { { { { { ` { { ` { { ` ] ) ] { { { { { { _ _ . z k k k k k k k k k k k k k ",
"k k k k k k k k k k k k k N @ } } ` { { { { { { { { } { { { ` ` { { { { { { { { ` _ { { { { { } { . z k k k k k l k k k k k k k ",
"k k k k k q k k k k k N X.o.o.o.` { { { { ` { ` D S S S S S S S S S S S S S D D S S D { { { { { { . . . l k k k k k k k k k k k ",
"k k k k k q k k k k o.o.o.o.o.o.{ { { { { { { _ A S S S S S S S S S S S S S S S S S S W _ { { { _ _ [ . . . k k k k k k k k k k ",
"k k k k k q k k k k o.o.o.| } { { { { { { { { ~ 8 8 8 8 8 8 8 8 8 8 8 8 8 8 8 9 a S S S S S S S S S S m n + k k k k k k k k k k ",
"k k k k k k k k z z o.o.{ { { { { { { { { { { + . . .       @ # $ $ $ $ % & % $ % S S S S S S S S S S S S . k z k k k k k k k k ",
"k k k k k k k z . . { { { { { { { { { [ _ [ { + J Z G H J E K ~ Q E E E _ _ _ _ { A S S S S S S S S S S S . . . z k k k k k k k ",
"k k k k k k k z . { { { { { { { { { { S S S { ; z z z k z k k k k k k k k k k z [ S S S S S S S S S S S n 8 9 + z k k k k k k k ",
"k k k k k k k z . { { ` { { ` { { { { S S S { . k k k k k k k k k k k k k k k k . S S S S S S S S S A n 8 8 9 $ z k k k k k k k ",
"k k k k k k k z . . . { { { _ _ { { { S S . . + k k k k k k k k k k k z x k k k . + . S S S S S S S m 8 8 $ & . z k k k k k k k ",
"k k k k k k k k z r . { { S S S S A m S S . z k k k k k M k k k k k k k k k k k k z @ S S S S S S A n 8 8 $ z z k k k k k k k k ",
"k k q k q k k k k z @ { { S S A 9 8 8 8 8 & k k k k k k k k k k k k k k k k k k k k . F S S S S A t 8 8 8 $ z k k k k k k k k k ",
"k k q k q X k k k z + { _ D S c 8 8 8 8 8 % k k k k k k k k k k k k k k k k k k k k . { ~ C S S s 8 8 8 t @ z k k k k k k k k k ",
"k k q k q X k k k z + . + + _ 0 8 8 & @ + % k k k k k k k k k k k k k k k k k k k k @ @ . * 8 8 8 8 : # + . z k k q k k k k k k ",
"k k k k k X k k k k z z k . { d 8 8 + z z k k k k k k k k k k k k k k k k k k k k k k z z + 0 8 8 9 @ k z z k X k q k k k k k k ",
"k k k q k k k k k k k k k . . + # @ . z k k k k k k k k k k k k k k k k k k k k k k k k z . # - ; # @ k k k k X q q k k k k k k ",
"k k k q k k k k k k k k k k k k k k k k k k k k k k k k k k k k k k k k k k k k k k k k k k k k k k k k k k k X q k k k k k k k ",
"k k k k k k k k k k k k k k k k k k k k k k k k k k k k k k k k k k k k k k k k k k k k k k k k k k k k k k k k q k k k k k k k ",
"k k k k k k k k k k k k k k k k k k k k k k k k k k k k k k k k k k k k k k k k i k k k k k k k k k k k k k k k k k k k k k k k ",
"k k k k k k k k k k k k k k k k k k k k k k k k k k k k k k k k k k k k k k k k k k k k k k k k k k k q k k k k k k k k k k k k ",
"k k k z k k k k k k k k k k u u k k k k k k k k k k k k k k k k k k k k k k k k k k k k k k k k k k k q k k k k k k k k k k k k ",
"k k k k k k k k k k k k k k q w k k k k k k k k k k k k k k k k k k k k k k k k k k k k k k k k k k q k k o k k k k k k k q k k ",
"k k k k k k q k k k k k k k q r k k k k k k k l k k k l k k k k k k k k k k k k k k k k k k k k k k q k q o k k k k k k k q k k ",
"k k k k k k q k k k k k k k w u k k k k k k k k k k k k k k k r k k k k k k k k l k w k k k k k k k q k q O k k k k k k k q k k ",
"k k k k k k q k q k k k k k j j k w w w w w w w w w w w w w w w w w w w w w w w w w w w w w w r k k k k q k k k k k k k k k k k ",
"k k k k k k q k q k k k k k k k j w w w w w w w w w w w w w w w w w w w w w w w w w w w w w w 6 z k k k k k k k k k k k k k k k ",
"k k k k q k k k q k k k k k k r w 6 w w w w w w w q q q q q q q q q q w w w w w w w w w w w q q w k k k k k k k k k z k k k k k ",
"k k k k q k k k k k k k k k k w q q w w o w w q q q q q q q w w w w w w w w w q q q w w w w q q q 6 k k k k k k k k k k k k k k ",
"k k k k q k k k k k k k k k k k j 6 w w X w w w q q q q q q w w w q q q q q q q q q q q w w q q q k k k k k k k k k k k k k k k ",
"k k k k k k k k k k k k k k k k k w q q X q 6 w q w q w w w w w w w w w w w w w w w w w w q q w q k k k k o k k k e k w k k k k ",
"k k k k k k k k k k k k k k k k k k j j j j k k k k k k k k k k k k k k k k k k k k k k k k g k k k k k k X k k k w k w k k k k ",
"k k k k k k k k k k k k k k k k k k k k k k k k k k k k k k k k k k k k k k k k k k k k k k k k k k k k k o k k k q k w k k k k ",
"k k k k k k k k k k k k k k k k k k k k k k k k k k k k k k k k k k k k k k k k k k k k k k k k k k k k k k k k k k k k k k k k ",
"k k k k k k k k k k k k k k k k k k k k k k k k k k k k k k k k k k k k k k k k k k k k k k k k k k k k k k k k k k k k k k k k "
};
