/* XPM */
static char *_692dc7d458e4c90d1d41e76987476a5W4mWcKySs4jKemtb[] = {
/* columns rows colors chars-per-pixel */
"64 64 224 2 ",
"   c #0C0D2A",
".  c #170A29",
"X  c #190B2B",
"o  c #0E102B",
"O  c #12132C",
"+  c #1E122D",
"@  c #1E0F32",
"#  c #191832",
"$  c #22182E",
"%  c #231334",
"&  c #2A1734",
"*  c #251A32",
"=  c #291B35",
"-  c #25133A",
";  c #251A3A",
":  c #2B1C3B",
">  c #1D2A2D",
",  c #1F2135",
"<  c #28292E",
"1  c #252734",
"2  c #2B2B31",
"3  c #312739",
"4  c #32203F",
"5  c #253438",
"6  c #33343C",
"7  c #3B3C3E",
"8  c #2C1746",
"9  c #2E164C",
"0  c #321B4D",
"q  c #2F1651",
"w  c #301652",
"e  c #341954",
"r  c #381D57",
"t  c #342242",
"y  c #382648",
"u  c #3B264B",
"i  c #2F3E42",
"p  c #373A42",
"a  c #353847",
"s  c #3B3C44",
"d  c #3D245A",
"f  c #3B3B52",
"g  c #432B4B",
"h  c #42394A",
"j  c #44285B",
"k  c #4B355B",
"l  c #563755",
"z  c #472B64",
"x  c #4E3167",
"c  c #533564",
"v  c #563865",
"b  c #5A3A63",
"n  c #54366A",
"m  c #593A69",
"M  c #553B75",
"N  c #5C3C72",
"B  c #593E7D",
"V  c #613C6E",
"C  c #32474E",
"Z  c #35555D",
"A  c #32585B",
"S  c #3D5B63",
"D  c #3A6467",
"F  c #424348",
"G  c #464754",
"H  c #494D5A",
"J  c #564655",
"K  c #544E52",
"L  c #4D525E",
"P  c #664B57",
"I  c #594066",
"U  c #565665",
"Y  c #5B4576",
"T  c #5C427E",
"R  c #6C4967",
"E  c #69566C",
"W  c #775565",
"Q  c #7C5565",
"!  c #644473",
"~  c #65437C",
"^  c #6D487B",
"/  c #446F72",
"(  c #7A6D74",
")  c #825B67",
"_  c #845D69",
"`  c #8C6873",
"'  c #8E6972",
"]  c #936C73",
"[  c #997276",
"{  c #997277",
"}  c #9B7579",
"|  c #5D4181",
" . c #644484",
".. c #6B4888",
"X. c #734B8C",
"o. c #7A5989",
"O. c #754E91",
"+. c #765393",
"@. c #785697",
"#. c #527E89",
"$. c #756D8B",
"%. c #7C5DA4",
"&. c #845B8F",
"*. c #815895",
"=. c #825B9B",
"-. c #937B85",
";. c #896498",
":. c #926A96",
">. c #A17A81",
",. c #895DA2",
"<. c #8C66A6",
"1. c #9769A3",
"2. c #936DAC",
"3. c #8B74AB",
"4. c #9875AB",
"5. c #8969B1",
"6. c #9A73B4",
"7. c #9A76B7",
"8. c #A97BA9",
"9. c #A477B9",
"0. c #9A78C5",
"q. c #9E7BCC",
"w. c #A47CC4",
"e. c #AB7BC1",
"r. c #A87ECC",
"t. c #488285",
"y. c #6B9596",
"u. c #758EAC",
"i. c #6EAAAD",
"p. c #68BBBD",
"a. c #69BAC0",
"s. c #6DC4C8",
"d. c #6ECACC",
"f. c #72C5C7",
"g. c #71CBCD",
"h. c #7ACED0",
"j. c #75ECF1",
"k. c #948D96",
"l. c #A8868A",
"z. c #A4969C",
"x. c #BD9E9E",
"c. c #9F82B3",
"v. c #AE96AB",
"b. c #A984BA",
"n. c #B9A7AF",
"m. c #C497B8",
"M. c #C5AAAC",
"N. c #CBB4B7",
"B. c #CAC0BE",
"V. c #B380C6",
"C. c #B482CB",
"Z. c #B985CD",
"A. c #BE8ACA",
"S. c #BB98CA",
"D. c #A985D7",
"F. c #BC87D1",
"G. c #BD88D3",
"H. c #B48DDC",
"J. c #BAA3D5",
"K. c #AF8BE0",
"L. c #B28EE3",
"P. c #B590E3",
"I. c #BA93E5",
"U. c #C98AC8",
"Y. c #C395C9",
"T. c #C18CD5",
"R. c #C08DD8",
"E. c #C495D3",
"W. c #C592D9",
"Q. c #CA9ADA",
"!. c #D29ED6",
"~. c #EB94CC",
"^. c #C9A1D8",
"/. c #D3A2DC",
"(. c #D8A5DA",
"). c #CFB5DE",
"_. c #F0B2D4",
"`. c #C399E6",
"'. c #C599E5",
"]. c #CB9DE4",
"[. c #CC9FE9",
"{. c #D29FE0",
"}. c #CFA4E4",
"|. c #CFA3EB",
" X c #D5A5E4",
".X c #D9A7E5",
"XX c #D7A9E6",
"oX c #DCAAE5",
"OX c #D1A4EC",
"+X c #D5AAEC",
"@X c #DCAAEC",
"#X c #CABCE6",
"$X c #D4B5E6",
"%X c #DBBCEA",
"&X c #E2ADE5",
"*X c #E2AEEB",
"=X c #E6B2ED",
"-X c #E9B3EF",
";X c #E6B8E9",
":X c #E6B2F0",
">X c #EAB4F0",
",X c #EAB5F0",
"<X c #ECBBF3",
"1X c #96C0C4",
"2X c #95DADA",
"3X c #AED1D2",
"4X c #DBC7C6",
"5X c #E1CDCB",
"6X c #E5D1CE",
"7X c #E4C1D9",
"8X c #E7D0D3",
"9X c #EAD6D3",
"0X c #DEC5EA",
"qX c #DEC8EA",
"wX c #E0C7EB",
"eX c #E0CBEC",
"rX c #EAC9F6",
"tX c #F1C6F6",
"yX c #F4CBF9",
"uX c #F8D5FC",
"iX c #C5EAEB",
"pX c #C6EBEB",
"aX c #C8F1EE",
"sX c #CCF4F1",
/* pixels */
">X>X>X>X>X>X>X>X>X>X>X>X>X>X>X>X>X>X>X>X>X>X>X>X>X>X>X>X>X>X>X>X>X>X>X>X>X>X>X>X>X>X>X>X>X>X>X>X>X>X>X>X>X>X>X>X>X>X>X>X>X>X>X>X",
">X>X>X>X>X>X>X>X>X>X>X>X>X>X>X>X>X>X>X>X>X>X>X>X>X>X>X>X>X>X>X>X>X>X>X>X>X>X>X>X>X>X>X>X>X>X>X>X>X>X>X>X>X>X>X>X>X>X>X>X>X>X>X>X",
">X>X>X>X>X>X>X>X>X>X>X>X>X>X>X>X>X>X>X>X>X>X>X>X>X>X>X>X>X>X>X>X>X>X>X>X>X>X>X>X>X>X>X>X>X>X>X>X>X>X>X>X>X>X>X>X>X>X>X>X>X>X>X>X",
">X>X>X>X>X>X>X>X>X>X>X>X>X>X>X>X>X>X>X>X>X>X>X>X>X>X>X>X>X>X>X>X>X>X>X>X>X>X>X>X>X-X-X>X>X>X>X>X>X>X>X>X>X>X>X>X>X>X>X>X>X>X>X>X",
">X>X>X>X>X>X>X>X>X>X>X>X>X>X>X>X>X>X>X>X>X>X>X>X>X*X&X-X&X&XoXoX=X=X-X&X!.(.&X>X>X-X>X>X>X>X>X>X>X>X>X>X>X>X>X>X>X>X>X>X>X>X>X>X",
">X>X>X>X>X>X>X>X>X>X>X>X>X>X>X>X>X>X>X>X>X<XrXyXrXeXeX%X%XeX+X|.|.].U.1.I ^ m 4.*X>X>X>X>X>X>X>X>X>X>X>X>X>X>X>X>X>X>X>X>X>X>X>X",
">X>X>X>X>X>X>X>X>X>X>X>X>X>X>X>X>X>X>X>XrX0X0XXX X XOX+X X^.G.G.W..X.XXXoXG.G.e.N 1.*X>X>X>X>X>X>X>X>X>X>X>X>X>X>X>X>X>X>X>X>X>X",
">X>X>X>X>X>X>X>X>X>X>X>X>X>X>X>X>X>XrX0X X X XOXOX|.|.|.|.R.G.G.G.G.G.W. X].W.G.G.C.N 8.>X>X>X>X>X>X>X>X>X>X>X>X>X>X>X>X>X>X>X>X",
">X>X>X>X>X>X>X>X>X>X>X>X>X>X>X>X>XrX%X X X+XOX|.OXOXOXOXOX[.R.G.G.G.G.G.OXOXOX|.R.G.G.<.m -X>X>X>X>X>X>X>X>X>X>X>X>X>X>X>X>X>X>X",
">X>X>X>X>X>X>X>X>X>X>X>X>X>X>X>XrXXX XOX|.OXOXOXOXOX|.OX'.R.OX|.|.Z.G.|.OXOXOXOXOX].G.G.9.v Q.>X>X>X>X-X>X>X>X>X>X>X>X>X>X>X>X>X",
">X>X>X>X>X>X>X>X>X>X>X>X>X>X<XrX%X XOXOXOXOX|.|.OXOX|.].G.V.].OXOXOX|.].OXOXOXOXOXOX|.G.G.9.c /.>X>X>X>X>X>X>X>X>X>X>X>X>X>X>X>X",
">X>X>X>X>X>X>X>X>X>X>X>X>X>XrXeXOX|.|.G.|.OX|.OXOXOX|.G.e.G.G.].W.|.OX].].OXOXOXOXOXOX].G.G.=.c >X>X>X>X>X>X>X>X>X>X>X>X>X>X>X>X",
">X>X>X>X>X>X>X>X>X>X>X>X>XrXeXOX|.].G.|.OXOX|.OXOX|.OX|.R.G.G.G.G.G.G.G.F.Z.+X].OXOXOX!.G.G.G.z k >X>X>X>X>X>X>X>X>X>X>X>X>X>X>X",
">X>X>X>X>X>X>X>X>X>X>X>X<XeX+X|.].G.R.OXOX|.|.|.|.].G.F.G.G.G.G.G.G.G.F.*.F.{.T.U.G.G.G.G.G.G.V.e E.>X>X>X>X>X2 >X>X>X< >X>X>X>X",
">X>X>X>X>X>X>X>X>X>X>X>XrX%X|.[.G.G.G.Z.[.OX[.|.|.G.Z.6.F.F.G.G.G.G.G.F.,.X.E.R.G.G.G.G.G.G.G.G. .r -X>X>X>X-X2 2 >X2 < >X>X>X>X",
">X>X>X>X>X>X>X>X>X>X>X=XeXOX|.G.G.G.G. X[.|.].OXG.G.<.7.F.0XQ.G.G.G.G.F.9...1.G.G.G.F.G.G.G.G.G.F.e ~ >X>X>X-X2 =X6 =X2 >X>X>X>X",
">X>X>X>X>X>X>X>X>X>X*X! %XOXW.Q.XXG.G.X.G.R.OX|.G.F.=.7..XW.G.G.G.G.G.Z.6.+.X.G.G.G.F.G.G.G.G.G.F.N w =X>X>X-X2 >X-X>X2 >X>X>X>X",
">X>X>X>X>X>X>X>X>X>X!.S.0X+XT.Q.oXG.G.O.G.G.G.R.G. .<.7. XT.G.G.G.G.G.Z.6.+...G.F.V.V 9.G.G.G.Z.F.6.w *.>X>X>X>X>X>X>X>X>X-X>X>X",
">X>X>X>X>X>X>X>X>X>XY.0X%XW.G. X.XG.G.X.S.%XG.G.F.r @.7.0XQ.G.G.G.G.G.V.6.z d V.e.2...~ F.G.G.G.C.7.r j >X>X>X>X>X>X-X>X>X>X>X>X",
">X>X>X>X>X>X>X>X>X>X:.%XOXG.2.eXXXG.Z.m 7.eXQ.G.+.w @.7.qXoXT.G.G.G.G.7.6.r B 6.7.<.n * e.G.G.Z.6.6.x e >X>X-X>X2 2 2 >X>X>X>X>X",
">X>X>X>X>X>X>X>X>X>X(.+XQ.G.o.eX{.G.e.m X.0X$Xe.r r =.6.). XQ.G.F.e.V.6.<.w ..6.6.+.u ; E.G.G.C.6.6.j e >X>X>X2 >X>X>X2 >X>X>X>X",
">X>X>X>X>X>X>X>X>X>X;.oXG.F.v.qXQ.G.=.m  .O.+. .w c ! 6.).eXXXF.6.6.6.6.M w ~ XX9. .9 9 V.G.G.C.6.6.- 8 =X>X>X2 2 2 2 2 >X>X>X>X",
">X>X>X>X>X>X>X>X>X*Xc Q.G.G.4.wXW.G.9.m m ^ ^ e c c m 6.b.eX).6.6.6.6.2.e t u A.=.j q ; G.G.G.V.6.6.% - -X>X>X2 >X>X>X2 >X>X>X>X",
">X>X>X>X>X>X>X>X>XoXc /.T.G.b.wXR.G.<.N m m r w W c c 6.6.J.b.6.6.6.<.j r c * : 0 9 9 * /.T.G.e.6.6.- - -X>X>X>X>X>X>X>X>X>X>X>X",
">X>X>X>X>X>X>X>X>XQ.c  XG.Z.S.0XR.G.O.B Q ) R Q _ Q v v o.6.6.6.6.=.w w u R b = : u W * /.W.G.9.6.6.r 0 >X>X>X>X>X>X>X>X>X>X>X>X",
">X>X>X>X>X>X>X>X>Xb.c /.G.v ! oXT.G.+.^ _ ) ) ) ) _ Q v v v @.2.;.w w b W Q ) ) ) Q Q * E. XG.7.6.2.9 % >X>X-X2 >X>X>X< >X>X>X>X",
">X>X>X>X>X>X>X>X>Xx z 6.C.c ^ oXG.G.=.N 2 > > > > > 7 W v v v v j r J > > > > > 5 J Q * 6.G.G.6.6.Y @ X >X-X-X2 2 >X2 < >X>X>X>X",
">X>X>X>X>X>X>X>X-Xx z 6.*.c o.oXG.G.V.1 > > > > > > > 6 _ _ _ _ W s > > > > > > > > 2 * 2.e.F.6.2.@ q X >X>X-X2 =X6 =X2 >X>X>X>X",
">X>X>X>X>X>X>X>X>XN r 6.n b X.%XG.G.Z.k $.D p.s.s.#.C J M.{ ' ' ' ( > A s.d.s./ 5 > > * 2.6.C.6.! X g @ >X-X-X2 >X-X>X2 >X>X>X>X",
">X>X>X>X>X>X>X>X>Xz r 6.! ^.b.qXG.G.e.Y sXy.pXd.d.d.A z.9X9X9X9X9XN.1 aXg.s.d.d./ 3XP * 2.6.Z.6.d w -.= >X-X>X>X>X>X>X>X>X-X>X>X",
">X>X>X>X>X>X>X>X*Xw w 2.o.$Xb.qXG.C.O.e aX1Xs.sXd.d.#.8X9X9X9X9X9Xn.f 2XsXg.s.d.i.sX-.* 2.6.Z.6.u k -.- >X>X>X>X>X>X-X>X>X>X>X>X",
">X>X>X>X>X>X>X>X*Xw 9 2.c.$X~ G.G.V.+.e pXy.s.g.2X2Xi.9X9X9X9X9X9X4XD d.d.g.h.g.#.aX] = 2.7.C.<.9 x.-.X >X>X-X>X2 2 2 >X>X>X>X>X",
">X>X-X>X>X@X>X>X-Xr 9 2.S.$Xn C.G.C.@.w pXD g.pXpXpXu.9X9X9X9X9X9X5XZ a.d.pXpXpXZ 3X' b 6.7.9.X.q M.l.. (.>X>X2 >X>X>X2 >X>X>X>X",
">X>X;X>XI.*X*X>X>X~ w <.o.$Xn 9.9.7. .w $.Z f.pXpXpX/ 4X9X9X9X9X9X8XZ D f.pXpX3XZ k._ v 4.6.6.z 9 x.l X (.-X-X< 2 2 2 2 >X>X>X>X",
"-X@X=X>XI.@X[.>X>X8.w N ;.n <.6.6.6. .w Z Z / p.s.#.A 4X9X9X9X9X9X9X4XS t.p.t.C 5 C E v &.6.6.w 9 3 % g -X>X>X2 >X>X>X2 >X>X>X>X",
"-X+X=X>X|.>X`.-X>XoX9 w <.w x 6.6.6...w 1 > > > 5 A z.9X9X9X9X9X9X9X9X5X/ 5 > > > i _ m E.7.6.w 9 8 % -X-X>X-X>X>X>X>X>X>X>X>X>X",
":XtX>X>X+X>X].=X>X>X;.w n w j <.6.6...w W J G E z.5X9X9X9X9X9X9X9X6X9X9X6XB.n.8.U.~._ v ^ 6.2.q 8 . c >X>X>X>X;X-X>X>X>X>X>X>X>X",
">XtX>X>X+X>X+X>X>X>X=X0 9 d r X.6.6.O.w : R ~._.9X9X9X9X9X9X9X9X9X9X9X9X9X9X9X_.~.l.P m ! 6...w % . d >X>X>X-Xj.j.>Xf.p.-X>X>X>X",
">X<X>X<XyX<X>X>X>X>X>XY.: 8 w c O.6...w . . + ( z.v.N.4X5XN.N.4X4X6X5X4XN.n.z.J = * $ u m 6.z w X @ r >X>X>X-Xj.h.h.h.p.;X>X>X>X",
">X>X>X<XtXyX>X>X>X-X*Xl u : q j n ~ ..9 . . . . . . + $ ' _ _ _ _ ] = . . . . . . . + g m ! n k + 9 q /.>X>X>X;Xj.h.p.#X>X>X>X>X",
">X>X>X>X>X<X>X-X>X>XY.u % : 9 9 c m x 8 . + . . . . . * J ] ' ' ' E * . . . + . . . . = m j - % X - . 3 -X>X>X>X;Xp.$X>X>X>X>X>X",
">X>X>X>X>X>X>XI.>X>X-Xv u @ : X u v v 9 . $ . . . . X G s { { { } F 6 + . . . . . - X X v - . & - X X + =X>X>X=X>X>X>X>X>X>X>X>X",
">X>X>X>X>X>X+XI.-X>X>XY.v % X X 8 u c 8 . ; t . . X F s , # h J h s p G $ . . . : . % X u ; = t t X . t >X>X>X>X>X>X>X>X>X>X>X>X",
">X>X>X>X>X>X].P.>X>X>X>X:.v X % + % X X . 4 4 . + G s 6           # 6 U H 4 % . ; : 4 ; - t t t t ; t >X>X>X>X>X>X>X>X>X>X-X>X-X",
">X>X>X>X>X>X@X-X>X>X>X>X>Xo.4 - - % - X : t : % H L p 1 o         O 6 L L L G - 9 ; t t t t t t t 8.>X>X>X>X>X>X>X>X>X>X>X|.>X:X",
">X>X>X>X>X>X:X>X>XOX-X>X>X>X*Xg t t 4 : 4 t : H L L 6 < #           6 < G U L H 8 . = t t t t k =X>X>X>X>X>X>X>X-X-XQ.-X>X`.>X>X",
">X>X>X>X>X>X>X>X@X[.>X@X>X>X>X>X1.t t t t t G L L L < <             1 < < H U L f : 8 - ; & ;.>X>X>X>X>X-X>X>X>X>X>X[.>X>X[.>X>X",
">X>X>X>XyXyX>X>X=X|.>X*X-X>X>X>X>X>X:.t t # L L L G < <   O # # # ; L < < < H a ; ~ m X . ;.>X>X>X>X-X>X>X>X>X>X>X>X[.>X>X*X>X>X",
">X>X>X>XuXyX>X>X>X:X>X+X-X>X>X>X>X>X>X=X=X8X6Xf L < < 6 H s L p L p L p < < O z.9X6X-X*X&X>X>X>X>X>X>X>X>X>X>X>X>X>X*X-X>X>X>X>X",
">X>X>X>XuXyX>X>X>X>X>X=X>X>X>X>X>X>X>X>X>X9X6X4Xu < < G C p H p H p H p b.oXu M.x.{ =X>X-X>X-X>X>X>X>X>X>X>X>X>X-X>X>X-X>X>X-X>X",
">X>X>X>XtX<X>X>X>X>XtXtXtX>X>X>X>X>X>X>X>X;X} { m.o # p F F U s U F U s c.o.].>.} (.>X>X>X-X>X>X>X>X>X>X>X>X-X>X>X>X>X>X>X-X>X>X",
">X>X>X>X>X>X>X>X>X>X<XyX>X>X>X>X>X>X>X>X>X>X&X(.>X&X} 9X6X>.=X=Xm.{ 8XM.{ -X>X-X-X-X+X-X>X>X>X>X>X>X>X>X*X9.+.*X-X>X>X>X>X>X>X>X",
">X>X>X>X>X>X>X>X>X>X>X>X@X>X>X>X>X>X*X>X>X>X>X>X>X7X} 5X4X{ *X*XY.{ 9Xl.{ >X>X-X>X*Xq.oX=X>X>X>X>X>X>X*Xx z Y V.XX>X>X>X>X>X>X>X",
">X>X>X>X>X>X>X>X-X>X>X>X>X>X-X>X=X>X-X].-X=X>XoXA.v.} 5X4Xl.B B ^ } 9Xl.l.@./.-X>XoX0. Xq.>X>X>X-X-X>XoXT J.J.J.J.>X-X@X-X>X>X>X",
">X>X>X>X>X>X>X>X>X>X=X>X>X-XI.>X>X>X`.`.=XL.7.B B T -.n.6X5XB B T M.9XM.' T T  .Q.-XA.}.q.=X>X>X@XI.-XoX3.3.3.3.7.>X@XL.*X>X>X>X",
">X>X>X>X>X>X>X>X>X@X>X>X>X>XI.>X>X*XI.+XH.7.B B B B h 7 F K B B B F K F F B B B T <.-XP.q.=X>X>X|.I.>X-X3.3.3.3.`.>XI.`.>X>X>X>X",
">X>X>X>X>X-X@X>X>X>X>X>X>X>X-X>X@XI.[. Xq.r.T | D.| 7 7 7 h 7.| B s 7 7 h B B |  .B E.P.@X>X>X>XOXL.>X>X=XoXXXL.I.>X[.>X>X>X>X>X",
">X>X>X>X-X+X`.>X>X>X>X[.:X=X>X-X+XP.-X.Xq.r.@. .L. .B M B ..K.| B B B B | %.D.P.L.| E.L.>X>X>X-X>X-X>X>X>X>X=XI.[.>X>X>X>X-X>X>X",
">X>X>X>X>X-XI.>X=X*X*XI.>XI.=X>X>X@X@X>X=Xw.I.P.L.0.%.@.%.D.D.+.+.%.5. .5.P.H.I.H.@.*X>X>X>X>X>X>X>X>X>X>X>X>X*X-X>X>X>X>X>X>X>X",
">X>X>X>X>X>X'.>X>X>X=XI.>X`.>X>X>X@XP.-X=X X.X+XOXI.I.I.I.P.P.I.I.I.I.`.OX@X*XoX/.oX>X>X>X>X>X>X>X>X>X>X>X>X>X>X>X>X-X>X-X>X>X>X",
">X>X>X>X>X>X@X>X=X>X>X=X>X|.>X>X>X>X=X>X>X-X*X=X=X>X>X>X>X>X>X>X>X>X>X>X>X>X>X-X>X>X>X>X>X>X>X>X>X>X>X>X>X>X>X>X>X>X>X>X>X>X>X>X",
">X>X>X>X>X>X>X>X>X>X>X>X>X=X>X>X>X>X>X>X>X>X>X-X=X>X>X>X>X>X>X>X>X>X>X>X>X>X>X>X>X>X>X>X>X>X>X>X>X>X>X>X>X>X>X>X>X>X>X>X>X>X>X>X",
">X>X>X>X>X>X>X>X:X+X>X>X>X>X>X>X>X>X>X>X>X>X>X>X>X>X>X>X>X>X-X-X-X-X-X-X>X>X>X>X>X>X>X>X>X>X>X>X>X>X>X>X>X>X>X>X>X>X>X>X>X>X>X>X",
">X>X>X>X>X>X>X>X>X>X>X>X>X>X<X<X>X>X>X>X>X>X>X>X>X>X>X>X>X>X>X>X>X>X>X>X>X>X>X>X>X>X>X>X>X>X>X>X>X>X>X>X>X>X>X>X>X>X>X>X>X>X>X>X"
};
