/* XPM */
static char *a9e09b813e5c49e1962e6122c9dc13a2qXWkAvF6h7C9cXEs[] = {
/* columns rows colors chars-per-pixel */
"64 64 116 2 ",
"   c #010000",
".  c #16080E",
"X  c #18090F",
"o  c #1C0B12",
"O  c #210E16",
"+  c #210E18",
"@  c #211016",
"#  c #24111A",
"$  c #29141D",
"%  c #2E1A22",
"&  c #321F28",
"*  c #3C1F2A",
"=  c #3D212D",
"-  c #40232F",
";  c #422531",
":  c #472935",
">  c #492B37",
",  c #4C2C39",
"<  c #502E3D",
"1  c #4B333D",
"2  c #52303F",
"3  c #5A2D4E",
"4  c #4B3640",
"5  c #543240",
"6  c #5E3647",
"7  c #5E3848",
"8  c #5C2E50",
"9  c #5D3151",
"0  c #643A4C",
"q  c #613556",
"w  c #7C495F",
"e  c #8F546F",
"r  c #845177",
"t  c #825876",
"y  c #88537A",
"u  c #975A74",
"i  c #9A5B77",
"p  c #9F5F7B",
"a  c #A05F7B",
"s  c #8A627F",
"d  c #9F607C",
"f  c #A1617D",
"g  c #8C6381",
"h  c #A66683",
"j  c #A36881",
"k  c #A17D96",
"l  c #BC7C96",
"z  c #BC7F99",
"x  c #C17E99",
"c  c #A5839B",
"v  c #A9859F",
"b  c #AB889F",
"n  c #BE809B",
"m  c #B5949F",
"M  c #AB87A1",
"N  c #AC8AA2",
"B  c #B08DA6",
"V  c #BD9CA7",
"C  c #B391A9",
"Z  c #BD9FA8",
"A  c #BB99B1",
"S  c #BEA1AA",
"D  c #BFA5B7",
"F  c #C2829D",
"G  c #C8849F",
"H  c #C785A0",
"J  c #CB86A2",
"K  c #CD89A5",
"L  c #D08BA6",
"P  c #D28CA8",
"I  c #D492AC",
"U  c #D895B1",
"Y  c #DB9CB5",
"T  c #C0A3AB",
"R  c #C5A4BC",
"E  c #C6AABE",
"W  c #C9A9BF",
"Q  c #DCAEBF",
"!  c #CCADC1",
"~  c #D2AEC4",
"^  c #CFB1C6",
"/  c #D2B1C6",
"(  c #D6B9C4",
")  c #D9BBC6",
"_  c #D5B7CC",
"`  c #D5B8CC",
"'  c #DFBBC9",
"]  c #D8BCC9",
"[  c #DCBECA",
"{  c #DABFCC",
"}  c #E5ADC4",
"|  c #EAB3C9",
" . c #E9B5CA",
".. c #DAC1CA",
"X. c #DCC1CB",
"o. c #DAC2CC",
"O. c #DEC3CE",
"+. c #DBC4CE",
"@. c #DDC5CD",
"#. c #DFC6D0",
"$. c #DEC9D2",
"%. c #E1C3CD",
"&. c #E1C6D0",
"*. c #E1C8D2",
"=. c #E3CBD5",
"-. c #E3CCD4",
";. c #E5CFD7",
":. c #E6CBDA",
">. c #E5D1D7",
",. c #E6D2D9",
"<. c #F1DBE3",
"1. c #F1D9E4",
"2. c #F8E1EB",
"3. c #FAE3ED",
"4. c #FDE6EF",
"5. c #FDE6F0",
/* pixels */
"_ _ _ _ _ _ _ _ _ _ _ _ _ _ _ _ _ _ _ _ _ _ _ _ _ _ _ _ _ _ _ _ _ _ _ _ _ _ _ _ _ _ _ _ _ _ _ _ _ _ _ _ _ _ _ _ _ _ _ _ _ _ _ _ ",
"_ _ _ _ _ _ _ _ _ _ _ _ _ _ _ _ _ _ _ _ _ _ _ _ _ _ _ _ _ _ _ _ _ _ _ _ _ _ _ _ _ _ _ _ _ _ _ _ _ _ _ _ _ _ _ _ _ _ _ _ _ _ _ _ ",
"_ _ _ _ _ _ _ _ _ _ _ _ _ _ _ _ _ _ _ _ _ _ _ _ _ _ _ _ _ _ _ _ _ _ _ _ _ _ _ _ _ _ _ _ _ _ _ _ _ _ _ _ _ _ _ _ _ _ _ _ _ _ _ _ ",
"_ _ _ _ _ _ _ _ _ _ _ _ _ _ _ _ _ _ _ _ _ _ _ _ _ _ _ _ _ _ _ _ _ _ _ _ _ _ _ _ _ _ _ _ _ _ _ _ _ _ _ _ _ _ _ _ _ _ _ _ _ _ _ _ ",
"_ _ _ _ _ _ _ _ _ _ _ _ _ _ _ _ _ _ _ _ _ _ _ _ _ _ _ _ _ _ _ _ _ _ _ _ _ _ _ _ _ _ _ _ _ _ _ _ _ _ _ _ _ _ _ _ _ _ _ _ _ _ _ _ ",
"_ _ _ _ _ _ _ _ _ _ _ _ _ _ _ _ _ _ _ _ _ _ _ _ o # o O o o # o # o o O o # o _ _ _ _ _ _ _ _ _ _ _ _ _ _ _ _ _ _ _ _ _ _ _ _ _ ",
"_ _ _ _ _ _ _ _ _ _ _ _ _ _ _ _ _ _ _ _ _ o o o P P P P P P P P P P P P P P P o o o _ _ _ _ _ _ _ _ _ _ _ _ _ _ _ _ _ _ _ _ _ _ ",
"_ _ _ _ _ _ _ _ _ _ _ _ _ _ _ _ _ _ _ ~ o P P P P P P P P P P P P P P P P P P P P P o ~ _ _ _ _ _ _ _ _ _ _ _ _ _ _ _ _ _ _ _ _ ",
"_ _ _ _ _ _ _ _ _ _ _ _ _ _ _ _ _ _ o o o P P P P P P P P P P P P P P P P P P P P P o o o _ _ _ _ _ _ _ _ _ _ _ _ _ _ _ _ _ _ _ ",
"_ _ _ _ _ _ _ _ _ _ _ _ _ _ _ _ _ ~ P P P P P P P P P P P P P P P P P P P P P P P P P P P ~ _ _ _ _ _ _ _ _ _ _ _ _ _ _ _ _ _ _ ",
"_ _ _ _ _ _ _ _ _ _ _ _ _ _ _ o o o P P P P P P P P P P P P P P P P P P P P P P P P P P P o o o _ _ _ _ _ _ _ _ _ _ _ _ _ _ _ _ ",
"_ _ _ _ _ _ _ _ _ _ _ _ _ _ / P P P P P P P P P P P P P P P P P P P P P P P P P P P P P P P P P / _ _ _ _ _ _ _ _ _ _ _ _ _ _ _ ",
"_ _ _ _ _ _ _ _ _ _ _ _ _ $ P P P P P P P Y P P P P P P P P P P P P P P P P P P P P P P P P P P P $ _ _ _ _ o _ _ _ _ _ o _ _ _ ",
"_ _ _ _ _ _ _ _ _ _ _ _ _ o P P P P P I  . .P P P P P P P P P P P P P P P P P P P P P P P P P P P o _ _ _ _ o o _ _ _ o o _ _ _ ",
"_ _ _ _ _ _ _ _ _ _ _ _ _ o P P P P P Y  . .P P  . .P P  .} P P P P P P P P P P P P P P P P P P P o _ _ _ _ o _ o _ # _ o _ _ _ ",
"_ _ _ _ _ _ _ _ _ _ _ _ _ o P P P P P U  . .P P  . .P P  .| P P P P P P P P P L P P P P P P P P P o _ _ _ _ o _ _ o _ _ o _ _ _ ",
"_ _ _ _ _ _ _ _ _ _ _ _ ! o P P P P P I  . .P P P P P P P P P P P P P P L z n z P P P L P P P P P o ! _ _ _ o _ _ _ _ _ o _ _ _ ",
"_ _ _ _ _ _ _ _ _ _ _ _ o l P P P P P I  .| P P P P P P P P P P P P P P K z ) z K L F F P P P P P l o _ _ _ _ _ _ _ _ _ _ _ _ _ ",
"_ _ _ _ _ _ _ _ _ _ _ _ o F P P P P P P I P P P P P P P P P P P P P P P H z O.F n z n F P P P P P F o _ _ _ _ _ o o o _ _ _ _ _ ",
"_ _ _ _ _ _ _ _ _ _ _ _ o l P P P P P P P P P P P P P P P P P P P P P P K z &.;.I z z n P P P P P l o _ _ _ _ o _ _ _ o _ _ _ _ ",
"_ _ _ _ _ _ _ _ _ _ _ _ o x P P P P P P P P P P P P P P P P P P P P P P L F ;.,.;.J n n P P P P P x o _ _ _ # _ _ _ _ _ o _ _ _ ",
"_ _ _ _ _ _ _ _ _ _ _ _ o H P P P P P K P P P P P P P P P P P P P P P P ;.>.,.,.,.;.%.n P P P P P H o _ _ _ o o # o o % o _ _ _ ",
"_ _ _ _ _ _ _ _ _ _ _ _ o H P P P P K h J P F F P P P P P P P P P P P I ,.,.,.,.,.,.>.z P P P P P H o _ _ _ o _ _ _ _ _ o _ _ _ ",
"_ _ _ _ _ _ _ _ _ _ _ _ o G P P P P K f J P z z P P P P P P P P P F Q >.,.,.,.,.,.,.;.z P P P P P F o _ _ _ _ _ _ _ _ _ _ _ _ _ ",
"_ _ _ _ _ _ _ _ _ _ _ _ o L P P P P L h K P z z n F F H J J J K L n ;.,.,.,.,.,.,.,.;.z L P P P P K o _ _ _ o _ _ _ _ _ o _ _ _ ",
"_ _ _ _ _ _ _ _ _ _ _ / o L P P P P L p l H F n z z z z z z z z n ' ,.,.>...@.+.o.;.*.f H P P P P K o ~ _ _ o o _ _ _ o o _ _ _ ",
"_ _ _ _ _ _ _ _ _ _ _ / o K P P P P L f ,.# # # o o O [ O.*.-.=.,.,.,.,.O o o o O o ( d F P P P P K o / _ _ o _ o _ # _ o _ _ _ ",
"_ _ _ _ _ _ _ _ _ _ _ / o K P P P P K p % # 2.1.3 3 3 ;.,.,.,.,.,.,.,.,.r 3.:.3 8 + ; p H P P P P K o / _ _ o _ _ o _ _ o _ _ _ ",
"_ _ _ _ _ _ _ _ _ _ _ / o F P P P P K f { N 4.3.y 3 q ,.,.,.,.,.,.,.,.,.N 5.5.y 3 9 ] f J P P P P F o / _ _ o _ _ _ _ _ o _ _ _ ",
"_ _ _ _ _ _ _ _ _ _ _ _ o K P P P P L p >.N M r r r 3 ,.,.,.,.,.,.,.,.,.N M y r r q >.h K P P P P K o _ _ _ _ _ _ _ _ _ _ _ _ _ ",
"_ _ _ _ _ _ _ _ _ _ _ _ O J P P P P L d >.N N y r r 3 >.,.,.,.,.,.,.,.,.N N y r r 9 -.h K P P P P H O _ _ _ _ _ o o o _ _ _ _ _ ",
"_ _ _ _ _ _ _ _ _ _ _ / $ K P P P P K d ,.N N y y y 3 ,.,.,.,.,.,.,.,.,.N N y y y 8 -.f L P P P P K $ _ _ _ _ o _ _ _ o _ _ _ _ ",
"_ _ _ _ _ M _ _ _ _ _ / o H P P P P K d =.N N 3 3 3 3 ,.,.,.,.,.,.,.,.>.N N 3 3 3 9 X.f K P P P P H o _ _ _ # _ _ _ _ _ o _ _ _ ",
"_ _ _ _ _ M _ _ _ _ _ ~ o G P P P P K f ,.C N N N N N ,.,.,.,.,.,.,.,.>.N N N N N B ) f J P P P P G o _ _ _ o o # o o % o _ _ _ ",
"_ _ _ _ _ N _ _ _ _ _ / o K P P P P K w ,.,.,.>.,.,.>.,.,.,.,.; ,.,.,.,.-.*.$.$.$.,.O.6 L P P P P K o ~ _ _ o _ _ _ _ _ o _ _ _ ",
"_ _ _ _ _ _ _ _ _ _ _ / o P P P P P J 0 ,.I P ,.,.,.,.,.,.,.1 ; = ,.,.,.,.,.,.,.P P #.< K P P P P P o / _ _ _ _ _ _ _ _ _ _ _ _ ",
"_ _ _ _ _ _ _ _ _ _ _ _ = o o P P P K ; ;.,.,.,.,.,.,.,.,.,.,.,.,.,.,.,.,.,.,.,.,.,.-., P P P P o o 2 _ _ _ _ _ _ _ _ _ _ _ _ _ ",
"_ _ _ _ _ _ _ _ _ _ _ M = l x o P P P = S ,.,.,.,.,.,.,.,.,.,.,.,.,.,.,.,.,.,.-.,.>.T = P P P o x x > / _ _ _ _ _ _ _ _ _ _ _ _ ",
"_ _ _ _ _ _ _ _ _ M _ M - x x % P P P = S V Z O.-.-.-.<.,.,.,.>.,.>.;.-.-.,.;.S S V m = P P P % x x > ~ _ _ _ _ _ _ _ _ _ _ _ _ ",
"_ _ _ _ _ _ _ _ _ M _ _ 7 x x o O P P = d p V S Z T S S S S T S T T V S S S Z Z p p p : P P O o x x = / _ _ _ _ _ _ _ _ _ _ _ _ ",
"_ _ _ _ _ _ _ _ _ N _ _ = x x x x J F = p p p p p f d i f S S S S j p i p p p p p p p = P K x x x x = _ _ _ _ _ _ _ _ _ _ _ _ _ ",
"_ _ M _ M _ _ _ _ _ _ _ , x x x x O K = a p p p p u o o # m S S Z % o o o u p p p p f = P O x x x x : _ _ _ _ _ _ _ _ _ _ _ _ _ ",
"_ _ M _ M t _ _ _ _ _ _ ; x x x x $ o = p p p p o o o o X o o o o o o o o o o p p p f = o $ x x x x - _ _ _ _ _ _ _ _ _ _ _ _ _ ",
"_ _ M _ M t _ _ _ _ _ _ : x x x x x x x f p p p o o o                 o o o o p p p f x x x x x x x = _ _ _ _ _ _ M _ _ _ _ _ _ ",
"_ _ _ _ _ t _ _ _ _ _ _ = x x x x x x x f p p # o o o                 # o o o # p p f x x x x x x x 5 _ _ _ _ t _ B _ _ _ _ _ _ ",
"_ _ _ N _ _ _ _ _ _ _ _ ; F x x x x x x p p i o o o .                 # o o o o i p p x x x x x x F 2 _ _ _ _ t M N _ _ _ _ _ _ ",
"_ _ _ M _ _ _ _ _ _ _ _ o o x F F x x x p p o o o o .                 o o o o o o p p x x x x x x o o _ _ _ _ t N _ _ _ _ _ _ _ ",
"_ _ _ _ _ _ _ _ _ _ _ _ _ _ F x x x x x p p O o o o X                 o o o o o O p p x x x x x F _ _ _ _ _ _ _ N _ _ _ _ _ _ _ ",
"_ _ _ _ _ _ _ _ _ _ _ _ _ _ o 1 x x x x d S S % o o o                 o o o o % S S d x x x x 4 o _ _ _ _ _ _ _ _ _ _ _ _ _ _ _ ",
"_ _ _ _ _ _ _ _ _ _ _ _ _ _ _ _ x x z l f S S Z * e o                 o o e * Z S S f l x x x _ _ _ _ N _ _ _ _ _ _ _ _ _ _ _ _ ",
"_ _ _ _ _ _ _ _ _ _ _ _ _ _ ! ! o o & o o o T T = = O                 # $ = = T T o o o & o o _ _ _ _ N _ _ _ _ _ _ _ _ _ _ _ _ ",
"_ _ _ _ _ _ _ _ _ _ _ _ _ _ N A _ _ _ _ _ _ _ _ _ _ / S S S / E D S S S ^ _ _ _ _ _ _ _ _ _ _ _ _ _ M _ _ s _ _ _ _ _ _ _ M _ _ ",
"_ _ _ _ _ _ M _ _ _ _ _ _ _ N R _ _ _ _ _ _ _ _ _ _ _ S S S ` _ / S S S _ _ _ _ _ _ _ _ _ _ _ _ _ _ M _ M g _ _ _ _ _ _ _ M _ _ ",
"_ _ _ _ _ _ M _ _ _ _ _ _ _ N W _ _ _ _ _ _ _ / _ _ / S S S / _ / S S S _ _ _ _ _ _ _ _ _ _ _ _ _ _ M _ M g _ _ _ _ _ _ _ M _ _ ",
"_ _ _ _ _ _ M _ M _ _ _ _ _ / _ _ N N N N N N N N N c S Z S N N N S S S c N N N N N N N N N M C _ _ _ _ N _ _ _ _ _ _ _ _ _ _ _ ",
"_ _ _ _ _ _ M _ M _ _ _ _ _ _ _ / N N M N N N N N M o o o @ k N k o o o o M N N N N N N N N N b ` _ _ _ _ _ _ _ _ _ _ _ _ _ _ _ ",
"_ _ _ _ M _ _ _ N _ _ _ _ _ _ C N b M N N N N N N c o o o o k M k o o o o c N N N N N N N N N M N R _ _ _ _ _ _ _ _ _ _ _ _ _ _ ",
"_ _ _ _ M _ _ _ _ _ _ _ _ _ _ N M M N N N N M M M M v k c v N N N M c c M N M M M M N N N N M M M b _ _ _ _ _ _ _ _ _ _ _ _ _ _ ",
"_ _ _ _ M _ _ _ _ _ _ _ _ _ _ / / b N N N N N M M M M M M M M M M M M M M M M M M M M M M N M M C _ _ _ _ _ _ _ _ _ _ _ _ _ _ _ ",
"_ _ _ _ _ _ _ _ _ _ _ _ _ _ _ _ _ N M M M M b M M M M N N N N M N M N M M M M M M M M M M M M M M _ _ _ _ t _ _ _ B _ N _ _ _ _ ",
"_ _ _ _ _ _ _ _ _ _ _ _ _ _ _ _ _ _ / / / / / / _ _ _ _ _ _ _ _ _ _ _ _ _ _ _ _ _ _ _ _ _ / ^ _ _ _ _ _ _ t _ _ _ N _ N _ _ _ _ ",
"_ _ _ _ _ _ _ _ _ _ _ _ _ _ _ _ _ _ _ _ _ _ _ _ _ _ _ _ _ _ _ _ _ _ _ _ _ _ _ _ _ _ _ _ _ _ _ _ _ _ _ _ _ t _ _ _ M _ M _ _ _ _ ",
"_ _ _ _ _ _ _ _ _ _ _ _ _ _ _ _ _ _ _ _ _ _ _ _ _ _ _ _ _ _ _ _ _ _ _ _ _ _ _ _ _ _ _ _ _ _ _ _ _ _ _ _ _ _ _ _ _ _ _ _ _ _ _ _ ",
"_ _ _ _ _ _ _ _ _ _ _ _ _ _ _ _ _ _ _ _ _ _ _ _ _ _ _ _ _ _ _ _ _ _ _ _ _ _ _ _ _ _ _ _ _ _ _ _ _ _ _ _ _ _ _ _ _ _ _ _ _ _ _ _ "
};
