/* XPM */
static char *_421725be2664ea1bfe9e2e240e24cd93xfoJhWcxEwYWayc[] = {
/* columns rows colors chars-per-pixel */
"64 64 90 1 ",
"  c #15171B",
". c #16181B",
"X c #181A1E",
"o c #1B1D21",
"O c #201E24",
"+ c #1D2125",
"@ c #212227",
"# c #24262D",
"$ c #26282E",
"% c #28282F",
"& c #292730",
"* c #252834",
"= c #2A2A33",
"- c #312D37",
"; c #332D39",
": c #37303D",
"> c #3A323F",
", c #3D3340",
"< c #423746",
"1 c #483A4B",
"2 c #662F54",
"3 c #673055",
"4 c #6A3157",
"5 c #6C3359",
"6 c #71375E",
"7 c #73385F",
"8 c #743960",
"9 c #7B3F67",
"0 c #3B424E",
"q c #3E4552",
"w c #574155",
"e c #5A4359",
"r c #62485F",
"t c #7D4069",
"y c #815776",
"u c #825876",
"i c #8A627F",
"p c #8C6381",
"a c #9D7D95",
"s c #AD719B",
"d c #CA7CB0",
"f c #4D9597",
"g c #4E9799",
"h c #4F9A9C",
"j c #529B9D",
"k c #589FA1",
"l c #A5839C",
"z c #A9859E",
"x c #AB889F",
"c c #8392A5",
"v c #8D99B1",
"b c #929EB5",
"n c #AB87A1",
"m c #AC89A2",
"M c #B08CA6",
"N c #B18EA8",
"B c #B291A9",
"V c #B69DAF",
"C c #B99FB3",
"Z c #84B7B8",
"A c #86BBBB",
"S c #89BEBE",
"D c #C981B2",
"F c #D186B9",
"G c #D986BD",
"H c #C1A7BB",
"J c #C4A9BC",
"K c #8ABFC0",
"L c #DC8AC1",
"P c #E28EC6",
"I c #E38FC8",
"U c #E48FC8",
"Y c #E590C9",
"T c #C8ADC0",
"R c #CBAFC3",
"E c #CEB1C6",
"W c #D0B3C7",
"Q c #D1B3C8",
"! c #D0B4C8",
"~ c #D3B5CB",
"^ c #D4B6CB",
"/ c #D5B7CC",
"( c #D9B7CE",
") c #D5B8CC",
"_ c #DDB3D1",
"` c #E2B7D5",
"' c #E7B7D8",
"] c #AFD5D6",
"[ c #BCDDDE",
"{ c #C0E0E0",
/* pixels */
"////////////////////////////////////////////////////////////////",
"////////////////////////////////////////////////////////////////",
"////////////////////////////////////////////////////////////////",
"////////////////////////////////////////////////////////////////",
"/////////////~##~//////////////////////////////////^##~/////////",
"/////////////E###E////////////////////////////////E###E/////////",
"/////////////E####W//////////////////////////////E####E/////////",
"/////////////J$###$E////////////////////////////E####$J/////////",
"/////////////##sD###E//////////////////////////E###sF$#^////////",
"/////////////#=YYe###E////////////////////////T###rYY=#~////////",
"/////////////##UYY:###E//////////////////////J###wYYU##~////////",
"/////////////##YYYP$##$~////////////////////~###1YYYY##~////////",
"////////////^##YYYYY&###E//////////////////E###,YYYYU##W////////",
"////////////~##PPYYYL$##$^////////////////E###;YYUYt8##^////////",
"////////////~##55IYYYU####C///////////////=##>YYYYY22&#/////////",
"////////////^##22PYYYYD####~/////////~~~~T##>YYUYYI32&#/////////",
"/////////////##227PYYYYL###..............X##LYYYYY922##/////////",
"////////////~#%422LYPYYL##o..............X##LYYPYP225$#/////////",
"/////////////=#;22dUPL-$##...XXooooX......##$-LPYG22;#=/////////",
"//////////////#&222t<###o...#$#$$$$$$$$#o..o$##<6222&#//////////",
"//////////////##4224&#o..oXX$$$$$$$$$###@.. .o#&2225##//////////",
"/////////////^=#=&&###..#$$$$$$$$$#$$$##o.....#####=#=//////////",
"//////////////~W######..$$$$$+................######V~//////////",
"///^////////////######..$$$$o.................######////////////",
"//////////////~/....X...$$X....................X....~//(////////",
"//////////////~/....o###$$..........................~/`/////////",
"/////////////W//....$$$$$$..........................~'//////////",
"////////////////.....X+##X.........................._///////////",
"////////////////....................................W///////////",
"////////////////....................................~///////////",
"///////////////J......SAjg................SAjh......////////////",
"///////////////E.....SKKjhh..............SKKjhh.....~///////////",
"/////n/////////E....ZS[{khhh............AS{{jhhh....~///////////",
"/////n/////////W....AA]{khhh............AS{{jhhh....////////////",
"/////n////^////^....jjhhhhhh....UO@Y....jjjjhjhh....////////////",
"///////////////~....hhhhhhhh....YYYY....hhhhhjhh....////////////",
"///////////////Q....Xjhhhhh...0qPYYYq0..ojhhhhho....////////////",
"///////////N///Q.....offhh+.XqqqqYYqqqqX..ffhh+.....////////////",
"/////////n/n///~...........Xqqqqqqqqqqqqo...........////////////",
"/////////n////W^...........qqqqqqqqqqqqqqo..........////////////",
"/////////m//////.........+qqqqqqqqqqqqqqqq..........////////////",
"//n/n///////////.........qqqqqqqqqqqqqqqqqq.........////////////",
"//n/mu///////////W......qqqqqqqqqqqqqqqqqqqq......//////////////",
"//m/ny////^//~~QETX.....qqqqqqqqqqqqqqqqqqqqX....=///////n//////",
"/////u////**#######@....qqqqqqqqqqqqqqqqqqqqX...W//////u/M//////",
"///m/^////*#########....qqqqqqqqqqqqqqqqqqqqX...///////umm//////",
"///n//////&############&qqqqqqqqqooqqqqqqqqq../////////um///////",
"//////////*############&qqqqqqqq+..#qqqqqqq0..Q/////////m///////",
"/////////~***#############+oX............X....~/////////////////",
"//////////TE..#############....X.............o/////m////////////",
"///)////////..#############.....obbX........+J/////m////////////",
"///^////////..@############.....cbbbX.......H/////n//i///////n//",
"//////n////^....##########......Xbv..... ...T/////n/np///////n//",
"//////n/////....@@@@@####X........X........o~/////n/np//////^n//",
"//////n/m//Q............... ..............oE////////m/////^/////",
"//////n/m//E.............................X~///////////////^/////",
"////n/^/m//W......~^~~/~......JEEQQT..X...~///m///^///////)/////",
"////n///////X.....mmumxmo.....ammnnxo....ozB//n/////////////////",
"////m///////VX.X..onynnna.....Xnnnnnx..o..@x)/m/n///////////////",
"///////////Bl......lynnnzo.....lnnnnno...XXzmm//m///////////////",
"///////////mnl..X..znnnnnl.....lnnnnnao...Xlnx//////////////////",
"///////////~QxX.XX+mmnnnnnX...oxnnnnnn@...ox~///////////////////",
"/////////////mnxnnxmmmmmmmmlnzmmmmmmmmxxzxnm////////////////////",
"//////////////WWWW~~/////////////////////~E/////////////////////"
};
