/* XPM */
static char *_b84cc82c0ba46f18d8529dc600d9ec0lTknfb4ghnjZ3a6k[] = {
/* columns rows colors chars-per-pixel */
"64 64 195 2 ",
"   c #121416",
".  c #141619",
"X  c #16191C",
"o  c #181A1E",
"O  c #1B1D22",
"+  c #1F1E29",
"@  c #241F2E",
"#  c #1E2025",
"$  c #1E2328",
"%  c #1F3333",
"&  c #212127",
"*  c #24252C",
"=  c #28262E",
"-  c #26282F",
";  c #2A2632",
":  c #272A31",
">  c #2A2C34",
",  c #2D273B",
"<  c #382B3B",
"1  c #2D3037",
"2  c #2E3239",
"3  c #28373A",
"4  c #37353D",
"5  c #34363E",
"6  c #382C45",
"7  c #2F3E44",
"8  c #353640",
"9  c #3E3443",
"0  c #353942",
"q  c #393B44",
"w  c #393E4A",
"e  c #3F3155",
"r  c #422D41",
"t  c #4B344B",
"y  c #423848",
"u  c #443C4B",
"i  c #453C54",
"p  c #533953",
"a  c #452F62",
"s  c #4C3766",
"d  c #513B6B",
"f  c #563E72",
"g  c #583F76",
"h  c #2B4749",
"j  c #334046",
"k  c #3C424D",
"l  c #3E4552",
"z  c #314E52",
"x  c #39555A",
"c  c #3B6469",
"v  c #3E7677",
"b  c #46444E",
"n  c #434553",
"m  c #4C4455",
"M  c #464B59",
"N  c #55445A",
"B  c #53485B",
"V  c #4D525E",
"C  c #584E64",
"Z  c #4E5461",
"A  c #535362",
"S  c #535B69",
"D  c #5A5C6E",
"F  c #5A4177",
"G  c #5D437B",
"H  c #694C6B",
"J  c #63546C",
"K  c #67576F",
"L  c #60467E",
"P  c #64497F",
"I  c #665D75",
"U  c #5B6372",
"Y  c #417779",
"T  c #626677",
"R  c #6C6279",
"E  c #61697A",
"W  c #79617E",
"Q  c #644A83",
"!  c #6A4D85",
"~  c #674C88",
"^  c #635081",
"/  c #6C528D",
"(  c #755F80",
")  c #725694",
"_  c #7E5D94",
"`  c #7B5D9E",
"'  c #666E80",
"]  c #7A6582",
"[  c #697384",
"{  c #6A7485",
"}  c #6E798B",
"|  c #75768A",
" . c #707A8C",
".. c #747E92",
"X. c #7B7C94",
"o. c #7B5DA0",
"O. c #7E63A2",
"+. c #826686",
"@. c #87678B",
"#. c #906B9A",
"$. c #8C7395",
"%. c #8968A7",
"&. c #8B74AC",
"*. c #9879A9",
"=. c #8D6DB3",
"-. c #9B79B7",
";. c #9273BB",
":. c #A878A6",
">. c #A57CB4",
",. c #B57DB4",
"<. c #BB7FB7",
"1. c #C07FAF",
"2. c #9A79C5",
"3. c #488C8E",
"4. c #4E9799",
"5. c #529C9E",
"6. c #798498",
"7. c #519EA0",
"8. c #7F8BA0",
"9. c #54A0A2",
"0. c #8C84A0",
"q. c #8691A9",
"w. c #8692A9",
"e. c #919EB7",
"r. c #929FB8",
"t. c #A384AC",
"y. c #B48AB7",
"u. c #BB80B9",
"i. c #B78FBD",
"p. c #B292BE",
"a. c #B992BF",
"s. c #93A0BA",
"d. c #C483BA",
"f. c #CB86BF",
"g. c #D587BD",
"h. c #A588C7",
"j. c #B389C5",
"k. c #BC8AC1",
"l. c #BB91C5",
"z. c #A985D5",
"x. c #B28BD3",
"c. c #B48EDD",
"v. c #BC93DC",
"b. c #B9A4D6",
"n. c #B38EE3",
"m. c #B691E4",
"M. c #BC94E5",
"N. c #CA88C2",
"B. c #D38AC3",
"V. c #DD8FCA",
"C. c #C496C6",
"Z. c #C696CB",
"A. c #D892CC",
"S. c #C79BD5",
"D. c #E191CC",
"F. c #EC95D1",
"G. c #EA9AD6",
"H. c #F297D4",
"J. c #F399D6",
"K. c #F19CDA",
"L. c #CCA1D5",
"P. c #D1A5D9",
"I. c #D3A2DD",
"U. c #EFA1DE",
"Y. c #F0A1DE",
"T. c #C49AE6",
"R. c #C89CE7",
"E. c #C69BE8",
"W. c #CA9EE9",
"Q. c #CCA2E9",
"!. c #CFA9EC",
"~. c #D6A7E1",
"^. c #DCABE5",
"/. c #D4A5EB",
"(. c #DCABEC",
"). c #DDB2EC",
"_. c #DBB4F0",
"`. c #E0ADE7",
"'. c #EEA8E4",
"]. c #E1AEEC",
"[. c #E5B1ED",
"{. c #E8B3EF",
"}. c #E9B4EF",
"|. c #ECBBE9",
" X c #E6B4F0",
".X c #E9B4F0",
"XX c #EAB4F0",
"oX c #ECBBF2",
"OX c #ABD6D7",
"+X c #AED9DA",
"@X c #EFC2F5",
"#X c #F1C4F6",
"$X c #F2C8F7",
"%X c #F4CBF9",
"&X c #F6D0FA",
/* pixels */
"XXXXXXXXXXXXXXXXXXXXXXXXXXXXXXXXXXXXXXXXXXXXXXXXXXXXXXXXXXXXXXXXXXXXXXXXXXXXXXXXXXXXXXXXXXXXXXXXXXXXXXXXXXXXXXXXXXXXXXXXXXXXXXXX",
"XXXXXXXXXXXXXXXXXXXXXXXXXXXXXXXXXXXXXXXXXXXXXXXXXXXXXXXXXXXXXXXXXXXXXXXXXXXXXXXXXXXXXXXXXXXXXXXXXXXXXXXXXXXXXXXXXXXXXXXXXXXXXXXX",
"XXXXXXXXXXXXXXXXXXXXXXXXXXXXXXXXXXXXXXXXXXXXXXXXXXXXXXXXXXXXXXXXXXXXXXXXXXXXXXXXXXXXXXXXXXXXXXXXXXXXXXXXXXXXXXXXXXXXXXXXXXXXXXXX",
"XXXXXXXXXXXXXXXXXXXXXXXXXXXXXXXXXXXXXXXXXXXXXXXXXXXXXXXXXXXXXXXXXXXXXXXXXXXXXXXXXXXXXXXXXXXXXXXXXXXXXXXXXXXXXXXXXXXXXXXXXXXXXXXX",
"XXXXXXXXXXXXXXXXXXXXXXXXXXXXXXXXXXXXXXXXXXXXXXXXXXXXXXXXXXXXXXXXXXXXXXXXXXXXXXXXXXXXXXXXXXXXXXXXXXXXXXXXXXXXXXXXXXXXXXXXXXXXXXXX",
"XXXXXXXXXXXXXXXXXXXXXXXXXXXXXXXXXXXX}.XXXXXXXXXXXXXXXXXXXXXXXXXXXXXXXXXXXXXXXXXXXXXXXXXXXXXXXXXXXXXXXXXX[.XXXXXXXXXXXXXXXXXXXXXX",
"XXXXXXXXXXXXXXXXXXXXXXXXXXXXXXXXXXXX[.[.[.XXXXXXXXXXXXXXXXXXXXXXXXXXXXXXXXXXXXXXXXXXXXXXXXXXXX}.] 5 [.XXXXXXXXXXXXXXXXXXXXXXXXXX",
"XXXXXXXXXXXXXXXXXXXXXXXXXXXX}.XX{.T 0 5 U | XXXXXXXXXXXXXXXXXXXXXXXXXXXXXXXXXXXXXXXXXXXXXXXXp.* * * ; [.XXXXXXXXXXXXXXXXXXXXXXXX",
"XXXXXXXXXXXXXXXXXXXXXXXXXXXXXXXX0.* * * * > t.XXXXXXXXXXXXXXXXXXXXXXXXXXXXXXXXXXXXXXXXXXXXK * * * * * $.XXXXXXXXXXXXXXXXXXXXXXXX",
"XXXXXXXXXXXXXXXXXXXXXXXXXXXX{.[.E * * n : * : L.XXXXXXXXXXXXXXXXXXXXXXXXXXXXXXXXXXXXXXXXC * * :.:.= * 5 XXXXXXXXXXXXXXXXXXXXXXXX",
"XXXXXXXXXXXXXXXXXXXXXXXXXXXX}.P.D * * A.G.J * * [.XXXXXXXXXXXXXXXXXXXXXXXXXXXXXXXXXXXXB * ; B.K.Y.9 * y XXXXXX}.XXXXXXXXXXXXXXXX",
"XXXXXXXXXXXXXXXXXXXXXXXXXXXXXX^.> * * ,.V.J.+.* > `.XXXX}.XXXXXXXXXXXXXXXXXXXXXXXXXXu * u K.Y.J.J.N * > XXXXXXXXXXXXXXXXXXXXXXXX",
"XXXXXXXXXXXXXXXXXXXXXXXXXX}.XX{.* * * ,.N.J.K.K * > [.XXXXXXXXXXXXXXXXXXXXXXXXXX[.w * 5 C.K.J.J.J.H * * XXXXXX}.XXXXXXXXXXXXXXXX",
"XXXXXXXXXXXXXXXXXXXXXXXXXXXXXX[.* * * <.f.J.J.[.: * D XXXXXXXXXXXXXXXXXXXXXXXX[.q * 5 [.U.J.J.J.J.N * & XXXXXXXXXXXXXXXXXXXXXXXX",
"XXXXXXXXXXXXXXXXXXXXXXXXXXXXXX[.- * * f.B.F.J.'.a.* : p.XXXX}.XX[.`.{.[.XXXX^.b * > P.XXK.J.J.J.H.= * & XXXXXXXXXXXXXXXXXXXXXXXX",
"XXXXXXXXXXXXXXXXXXXXXXXXXXXXXX`.* * * d.u.d.J.J.{.0 * R X...e.s.s.e.e.e.q.B 5 b 8 I XX'.H.J.J.V.f.* * * XXXXXXXXXXXXXXXXXXXXXXXX",
"XXXXXXXXXXXXXXXXXXXXXXXXXXXXXX}.* * * +.u.d.F.D.N.@.: q.s.r.q.6. . ...s.s.q.& X X = `.J.J.H.B.u.:.* * < XXXX}.XXXXXXXXXXXXXXXXXX",
"XXXXXXXXXXXXXXXXXXXXXXXXXXXXXXXX8 * * 5 :.,.,.u.k.J M 8. . . . . . .S V Z S k 5 1 & R Z.N.B.,.,.H * * K XXXXXXXXXXXXXXXXXXXXXXXX",
"XXXXXXXXXXXXXXXXXXXXXXXXXXXXXXXXl.* * * r t #.p ( S .. . . . . .} [ U V V Z Z 0 5 k l n D H t < : * & i.XX{.XXXXXXXXXXXXXXXXXXXX",
"XXXXXXXXXXXXXXXXXXXXXXXXXXXXXXXXXX* * * y r r n Z  . . .}  . . . .} V V V Z V q 0 k 8 2 k i r r * * O `.XXXXXXXXXXXXXXXXXXXXXXXX",
"XXXXXXXXXXXXXXXXXXXXXXXXXXXXXXXXXXm * * * t A l }  . . . .} 6. . .D V V V V V 0 5 q 5 . X 8 n < * * O XXXXXXXXXXXXXXXXXXXXXXXXXX",
"XXXXXXXXXXXXXXXXXXXXXXXXXXXXXXXXXX*.* * 5 l l Z E E [ ' }  . .} } S V V V V V 5 0 0 5 - . . & 9 * * = XXXXXXXXXXXXXXXXXXXXXXXXXX",
"XXXXXXXXXXXXXXXXXXXXXXXXXXXXXXXXXXS.* * > M V V S D E U } { A V V V V V V V 5 5 5 0 5 5 & . . O * * m XXXXXXXXXXXXXXXXXXXXXXXXXX",
"XXXXXXXXXXXXXXXXXXXXXXXXXXXXXXXXXX{.: * w Z V V V V V V V V V V V V V V q 5 5 q 5 5 5 5 5 X . . * & S.XXXX}.XXXXXXXXXXXXXXXXXXXX",
"XXXXXXXXXXXXXXXXXXXXXXXXXXXXXXXXXXXX8 * V V V Z V V V V V V V k 0 0 5 5 5 5 5 5 0 5 5 5 5 & . . & O [.XXXXXXXXXXXXXXXXXXXXXXXXXX",
"XXXXXXXXXXXXXXXXXXXXXXXXXXXXXXXXXXXX@.* V V V V V V V V V n 5 q 0 0 0 5 5 5 5 0 5 5 5 5 2 * . . . X `.XX{.XXXXXXXXXXXXXXXXXXXXXX",
"XXXXXXXXXXXXXXXXXXXXXXXXXXXXXXXXXXXXC * n V V V V V V V k 0 5 5 5 5 5 q 8 5 5 5 5 0 5 5 > * O . . X J XXXXXXXXXXXXXXXXXXXXXXXXXX",
"XXXXXXXXXXXXXXXXXX`.XXXXXXXXXX}.XXXXB : 0 V V V V A k 0 5 5 0 5 5 5 5 5 5 0 5 5 5 5 8 > * - O . . X > XXXXXXXXXXXXXXXXXXXXXXXXXX",
"XXXXXXXXXXXXXXXXXX`.XXXXXXXXXXXXXX{.* : q k n V V k q k 0 5 5 w 5 5 5 5 5 5 5 0 5 2 : 1 > * O . . X = XXXXXXXXXX}.XXXXXXXXXXXXXX",
"XXXXXXXXXXXXXXXXXX}.XXXXXXXXXXXXXXXX* 2 0 q 5 5 0 x 7.9.5.3 5 5 5 5 5 5 0 q 5 5 5 3 5.7.7.c & . . X & XXXXXXXXXXM.XXXXXXXXXXXXXX",
"XXXXXX[.XXXXXXXXXX[.XXXXXXXXXXXXXXXX* > 5 5 5 5 k 7.+XOX7.3.7 5 5 d.y.k W K.A 5 2 5.+XOX7.7.> . . X O XXXXXXXX/.M.XXXXXXXXXXXXXX",
"XXXXXX].XXXX`.>._ ].XXXXXXXXXXXXXXXX] - 5 5 5 5 Y 7.+X+X7.7.% n m F.H.A H.H.+.5 V 5.+X+X9.7.c X . X O XXXXXXXXR.M.XXXXXXXXoXXXXX",
"XXXXXX].XX`.s a F h.~.XXXXXXXX}.{.XX`.: 5 5 5 5 c 7.7.9.7.7.* : l 1.H.H.H.H.n - : 4.7.9.7.7.z . . X & XXXX}.XX(.{.XXXXXXoX$XXXXX",
"XXXX{.{.XX`.G b.b.b.b.-.[.(.}.XXXXXXXX> 5 5 5 5 q 5.7.7.7.x * w k 2 u F.g.q 0 w : 3 5.7.7.5.X . . X K XXXXXXXX XXXXX/.[. XoXXXXX",
"XXXX(.M.XX~.&.&.&.&.&.&.R.n.].{.XXXXXX9 - 5 5 5 5 j v 3.h * 5 l l w 1 5 1 5 l l k * 3 Y Y $ . X . X *.XXXXXXXXXXXX(.R.(./.XXXXXX",
"XXXXW.M.XX[.&.&.&.&.M.(.n.T.XXXXXXXXXXi.O 5 5 5 5 5 2 * * : l l l l w w w l n l l : * O # . . . . X {.XXXXXXXXXXXX[.W./.(.XXXXXX",
"XXXX/.n.XXXX[.^.^.n.n.(.E.XXXXXX}.XXXXXXX : 0 5 - * * * * k l l l l k w l l l l l l - X O . X X . 9 XXXXXXXXXXXXXXXX[.(./.(.XXXX",
"XX{.XX{.XXXXXXXX[.M.W.].(.XXXX{.XXXXXX{.O X * 5 * * * * 2 l l l l l w 0 k l l l l l k X X X X X X C.XXXXXXXXXXXXXXXXXXXX).oXXXXX",
"XXXXXXXXXXXXXXXXXX(.XX(.].}.XXXXXX}.}.[.o . # * * * * * k l l l l l k # > l l l l l l X X . X X # XXXXXXXXXXXXXXXXXXXX%X$X$XXXXX",
"XXXXXXXXXXXXXXXXXXXXXXXXXXXXXX}.L.+.^.5 - . . & * * X X l l l l l l k . X l l l l l l X . . X O J XXXXXXXXXXXXXXXXXXXXoX%XXXXXXX",
"XXXXXXXXXXXXXXXXXXXXXXXXXXXXXXP.O . # # # X . . . # . . 0 n n l l l O . . $ l l l l : X . O X m }.XXXXXXXXXXXXXXXXXXXXXXXX].XXXX",
"XXXXXXXXXXXXXXXXXXXXXXXXXXXXXX*.. O & 5 > k 2 # . . X . . : q 0 - X . X X . O 0 0 O X X O X n {.XX}.XXXXXXXXXXXXXXXXXXXXXXXXXXXX",
"XXXXXXXXXXXXXXXXXXXXXXXXXXXXXXa.. X k Z w - 2 2 5 > X X . . . X & S O X * V O X X X X X - t.XXXXXXXXXXXXXXXXXXXXXXXXXXXXXXXXXXXX",
"XXXXXXXXXX}.[.XXXXXXXXXXXXXXXX[.* . k S S l 5 2 2 2 2 * X * X . 5  .[ 5  . .0 X X X X . B XX}.XXXXXXXXXXXXXXXXXXXXXXXXXXXXXXXXXX",
"XXXXXXXXXXXXXXXXXXXXXXXXXXXXXXXXt.& 2 n Z S M 2 2 2 2 1 X . . . X  . . . . .* X X O X X P.XXXXXXXXXXXXXXXXXXXXXXXXXXXXXXXXXXXXXX",
"XXXXXXXXXXXXXXXXXXXXXXXXXXXXXXXX[.. 5 l 5 2 2 2 2 2 2 1 . . . . - n  . . .T X X X X X X XXXX}.XXXXXXXXXXXXXXXXXXXXXXXXXXXXXXXXXX",
"XXXXXXXXXXXXXXXXXXXXXXXXXXXXXXXXXXX 2 k 2 1 > > > > : : X . X O X X 0 { n X X X X X X : XXXXXXXXXXXXXXXXXXXXXXXXXXXXXXXXXXXXXXXX",
"XXXXXXXXXXXXXXXX).XXXXXXXXXXXXXXXX. X - > X X X X X X X X O X X X X X X X X X X X X O t.XXXXXXXXXXXXXXXXXXXXXXXXXXXXXXXXXXXXXXXX",
"XXXXXXXXXXXXXXXX).XXXXXXXXXXXXXX^.. X X X X & , u u ;     . O X X O O O # # O # X . $.XXXXXXXXXXXXXXXXXXXXXXXXXXXXXXXXXXXXXXXXXX",
"XXXXXXXXXXXXXXXXXXXXXXXXXXXXXXXXi.. O X X O C.XXXXXXXXm * O X M ^.XXXX{.[.X . X . m XXXXXXXXXX{.XXXX].[.XXXXXXXXXXXXXXXXXXXXXXXX",
"{.XXXXXXXXXXXXXXXXXXXXXXXXXXXXI.f . . . X O k.XXXXXX{.* : & . n [.XXXX{.Z.X X   . 2 ! I.{.XXXX(.[.XX].XXXXXXXXXXXXXXXXXXXXXXXXXX",
"{.].XXXXXXXXXXXXXXXXXXXXXX^.[.l.G + . . . . d L G G Q . & . X . * f g F g . . . X . X F %.I.}.(.XXXXXXXXXXXXXXXXXXXXXXXXXXXXXXXX",
"[.n.XXXXXXXXXXXXXXXXXXXX[.XXXXI.%.d . . . . . G / ~ L . . . . . . G ) ;.;.> . .       P j.`.XX/.].].XXXXXXXXXXXXXXXX[.XXXXXXXXXX",
"{./.XXXXXXXXXXXXXXXXXXXXXXXXXX~.c.h.O . . . i -.` ~ g 6 . . . . . ~ ` ` z.^ . . . . . ! I.~.[.(.[.M.(.XXXXXX}.}.XXXX(.XXXXXXXXXX",
"].M.{.XXXXXXXXXX[.M.{.XXXXXXXXXX].%.O., ; / c.M.M.M.z.) Q e , @ 6 o.2.n.n.;.O.6 O * s G %.) S.XXXXE./.XXXXXX}.|.XXM.].].XXXXXXXX",
"(.M.{.XXXXXXXXXX[.M.(./.XXXXXXXX{.*.P %.-.x.M.n.n.n.n.n.z./ G =.c.m.n.n.n.n.n.;.Q / Q Q / j.[.XXXXXXXXXXXX}.(.[.XXM.(.W.XXXXXXXX",
"XXXXXXXXXXXXXX(.[.M./.M.XXXXXXXX{.XX`.[.XXXXXXW.M.M.m.m.m.n.n.n.n.n.n.n.n.M.Q.E.c.x.v.R.^.XXXXXXXXXXXXXX}.{./.[.XXQ.).T.{.XXXXXX",
"XX{.XXXXXXXXXXE.(.W.(.M.XXXXXXXXXXXXXXXXXXXXXXXXXX/.n.(./.T.M.M.M.M.M.M.M.W./.(.}.}.XX}.XXXXXXXXXXXXXXXXXX X#XXXXX!._.T.[.XXXXXX",
"XXXXXXXXoXXXXXE.(.].].M.XXXXXXXXXXXXXXXXXXXXXXXXXX(.M.XXXX/.{.XXXXXXXXQ.[.XXXXXX}.XXXXXXXXXXXXXXXXXXXXXXXXXX@XXXXX!.@X/.XXXXXXXX",
"XXoXoX#X$XXXXXW.(.XX[.W.XXXXXXXXXXXXXXXXXXXXXXXXXXXX/.XXXX(.[.XXXXXXXX[.XXXXXXXXXXoXoX#XXXXXXXXXXXXXXXXXXXXXoXXXoX%X&XXXXXXXXXXX",
"XXXXXXXXXXXXXX/.[.XXXXXXXXXXXXXXXXXXXXXXXXXXXXXXXXXXXXXXXXXXXXXX~.XXXXXXXXXXXXXXXX&X$X$XXXXXXXXXXXXXXXXXXXXXXXXXoX$X%XXXXXXXXXXX",
"XXXXXXXXXXXXXX{.XXXXXXXXXXXXXXXXXXXXXXXXXXXXXXXXXXXXXXXXXXXXXXXXXXXXXXXXXXXXXXXXXX@X#XoXXXXXXXXXXXXXXXXXXXXXXXXXXXXXoXXXXXXXXXXX",
"XXXXXXXXXXXXXXXXXXXXXXXXXXXXXXXXXXXXXXXXXXXXXXXXXXXXXXXXXXXXXXXXXXXXXXXXXXXX[.XXXXXXXXXXXXXXXXXXXXXXXXXXXXXXXXXXXXXXXXXXXXXXXXXX",
"XXXXXXXXXXXXXXXXXXXXXXXXXXXXXXXXXXXXXXXXXXXXXXXXXXXXXXXXXXXXXXXXXXXXXXXXXXXX^.[.].XXXXXXXXXXXXXXXXXXXXXXXXXXXXXXXXXXXXXXXXXXXXXX"
};
